<svg id="Component_103_1" data-name="Component 103 – 1" xmlns="http://www.w3.org/2000/svg" width="152" height="112" viewBox="0 0 152 112">
  <rect id="Rectangle_4382" data-name="Rectangle 4382" width="152" height="112" fill="none"/>
  <g id="Group_7983" data-name="Group 7983" transform="translate(6 4.999)">
    <path id="Path_32557" data-name="Path 32557" d="M203.517,129.7c-2.451,5.057-6.7,8.926-11.551,11.871a51.058,51.058,0,0,1-6.2,3.173q-2.1.907-4.249,1.656a67.524,67.524,0,0,1-22.2,3.705q-1.85,0-3.7-.095-.531-.027-1.062-.062-2.8-.185-5.575-.595l-.111-.017a70.228,70.228,0,0,1-11.419-2.676q-1.083-.351-2.153-.738c-.193-.068-.385-.139-.576-.209q-1.206-.447-2.394-.938-1-.412-1.987-.855-.972-.439-1.931-.907-1.569-.769-3.1-1.612-1.185-.656-2.338-1.361a64.6,64.6,0,0,1-5.528-3.783q-.941-.718-1.855-1.473c-.423-.349-.842-.705-1.267-1.051a15.991,15.991,0,0,0-2.852-1.942,10.234,10.234,0,0,0-.955-.422,11.956,11.956,0,0,0-3.793-.738,21.5,21.5,0,0,0-6.63.933c-1.016.288-2.02.618-3.025.956l-1.236.419c-.851.29-1.7.574-2.56.833-.286.086-.572.17-.86.25a25.268,25.268,0,0,1-3.5.744,18.653,18.653,0,0,1-7.87-.686l-.217-.068c-.364-.114-.725-.239-1.084-.376l-.217-.083q-.519-.2-1.019-.431l-.217-.1c-.32-.15-.634-.306-.942-.471l-.077-.04c-.12-.062-.238-.13-.355-.194a21.418,21.418,0,0,1-5.095-3.967c-.043-.043-.083-.087-.13-.13-.207-.224-.41-.451-.606-.684-.073-.086-.146-.172-.217-.26q-.349-.427-.675-.873c-.033-.043-.064-.087-.095-.13A18.869,18.869,0,0,1,67.9,122.3c-.018-.043-.035-.087-.051-.13q-.26-.669-.475-1.362c-.059-.193-.114-.39-.164-.583-.017-.057-.033-.116-.047-.173a35.486,35.486,0,0,1-.788-8.687v-1.021a99.349,99.349,0,0,1,.791-14.2.784.784,0,0,1,.014-.1,44.763,44.763,0,0,1,.951-4.66,34.558,34.558,0,0,1,1.6-4.723,43.876,43.876,0,0,1,6.527-10.389c6.518-8,15.075-14.73,25.09-17.24a36.933,36.933,0,0,1,31.491,6.817c2.567,2.043,4.881,4.449,7.727,6.071q.144.084.293.164.564.306,1.153.557a11.894,11.894,0,0,0,1.6.553,9.058,9.058,0,0,0,5.26-.07c.141-.048.281-.1.42-.155.3-.117.578-.226.85-.328a12.276,12.276,0,0,1,5.538-.906,53.518,53.518,0,0,1,15.659,3.277c.2.074.406.151.608.228,13.1,5.015,24.368,14.975,30.22,27.773q.234.507.451,1.023C206.108,112.192,207.367,121.751,203.517,129.7Z" transform="translate(-65.715 -57.987)" fill="#6881c4" opacity="0.3"/>
    <path id="Path_32558" data-name="Path 32558" d="M63.478,512.617v.052l-.02.023Z" transform="translate(-55.202 -445.924)" fill="#cacaca"/>
    <path id="Path_32559" data-name="Path 32559" d="M294.021,630.833l-1.236.419v-.419Z" transform="translate(-262.673 -556.304)" fill="#fff"/>
    <rect id="Rectangle_4075" data-name="Rectangle 4075" width="3.047" height="7.618" transform="translate(74.847 7.646)" fill="#e4e4e4"/>
    <path id="Path_32560" data-name="Path 32560" d="M527.3,170.693v76.681a70.225,70.225,0,0,1-11.419-2.676q-1.083-.351-2.153-.738c-.193-.068-.385-.139-.576-.209q-1.206-.447-2.394-.938-1-.412-1.987-.855-.972-.439-1.931-.907-1.569-.769-3.1-1.612-1.185-.656-2.338-1.361V170.693Z" transform="translate(-444.144 -156.029)" fill="#e4e4e4"/>
    <path id="Path_32561" data-name="Path 32561" d="M710.932,170.693v77.45q-1.85,0-3.7-.095-.531-.027-1.062-.062-2.8-.185-5.575-.595l-.111-.017V170.693Z" transform="translate(-617.331 -156.029)" fill="#cacaca"/>
    <rect id="Rectangle_4076" data-name="Rectangle 4076" width="3.918" height="3.918" transform="translate(61.932 22.282)" fill="#fff"/>
    <rect id="Rectangle_4077" data-name="Rectangle 4077" width="3.918" height="3.918" transform="translate(68.244 22.282)" fill="#fff"/>
    <rect id="Rectangle_4078" data-name="Rectangle 4078" width="3.918" height="3.918" transform="translate(74.557 22.282)" fill="#fff"/>
    <rect id="Rectangle_4079" data-name="Rectangle 4079" width="3.918" height="3.918" transform="translate(62.041 31.206)" fill="#fff"/>
    <rect id="Rectangle_4080" data-name="Rectangle 4080" width="3.918" height="3.918" transform="translate(68.353 31.206)" fill="#fff"/>
    <rect id="Rectangle_4081" data-name="Rectangle 4081" width="3.918" height="3.918" transform="translate(74.665 31.206)" fill="#fff"/>
    <rect id="Rectangle_4082" data-name="Rectangle 4082" width="3.918" height="3.918" transform="translate(62.15 40.13)" fill="#fff"/>
    <rect id="Rectangle_4083" data-name="Rectangle 4083" width="3.918" height="3.918" transform="translate(68.462 40.13)" fill="#fff"/>
    <rect id="Rectangle_4084" data-name="Rectangle 4084" width="3.918" height="3.918" transform="translate(74.774 40.13)" fill="#fff"/>
    <rect id="Rectangle_4085" data-name="Rectangle 4085" width="3.918" height="3.918" transform="translate(62.259 49.054)" fill="#fff"/>
    <rect id="Rectangle_4086" data-name="Rectangle 4086" width="3.918" height="3.918" transform="translate(68.571 49.054)" fill="#fff"/>
    <rect id="Rectangle_4087" data-name="Rectangle 4087" width="3.918" height="3.918" transform="translate(74.883 49.054)" fill="#fff"/>
    <rect id="Rectangle_4088" data-name="Rectangle 4088" width="3.918" height="3.918" transform="translate(62.368 57.978)" fill="#fff"/>
    <rect id="Rectangle_4089" data-name="Rectangle 4089" width="3.918" height="3.918" transform="translate(68.68 57.978)" fill="#fff"/>
    <rect id="Rectangle_4090" data-name="Rectangle 4090" width="3.918" height="3.918" transform="translate(74.992 57.978)" fill="#fff"/>
    <rect id="Rectangle_4091" data-name="Rectangle 4091" width="3.918" height="3.918" transform="translate(62.476 66.902)" fill="#fff"/>
    <rect id="Rectangle_4092" data-name="Rectangle 4092" width="3.918" height="3.918" transform="translate(68.789 66.902)" fill="#fff"/>
    <rect id="Rectangle_4093" data-name="Rectangle 4093" width="3.918" height="3.918" transform="translate(75.101 66.902)" fill="#fff"/>
    <rect id="Rectangle_4094" data-name="Rectangle 4094" width="3.918" height="3.918" transform="translate(62.585 75.826)" fill="#fff"/>
    <rect id="Rectangle_4095" data-name="Rectangle 4095" width="3.918" height="3.918" transform="translate(68.897 75.826)" fill="#fff"/>
    <rect id="Rectangle_4096" data-name="Rectangle 4096" width="3.918" height="3.918" transform="translate(75.21 75.826)" fill="#fff"/>
    <path id="Path_32562" data-name="Path 32562" d="M547.144,709.393v2.034q-1-.412-1.987-.855-.972-.439-1.931-.907v-.272Z" transform="translate(-480.531 -624.643)" fill="#fff"/>
    <path id="Path_32563" data-name="Path 32563" d="M595.655,709.393v3.919h-1.189q-1.083-.351-2.153-.738c-.193-.068-.385-.139-.576-.209v-2.972Z" transform="translate(-522.73 -624.643)" fill="#fff"/>
    <rect id="Rectangle_4097" data-name="Rectangle 4097" width="3.918" height="3.918" transform="translate(75.318 84.75)" fill="#fff"/>
    <rect id="Rectangle_4098" data-name="Rectangle 4098" width="3.047" height="4.515" transform="translate(110.362 46.442)" fill="#e4e4e4"/>
    <path id="Path_32564" data-name="Path 32564" d="M778.248,446.673v37.839a67.523,67.523,0,0,1-22.2,3.705q-1.85,0-3.7-.095V446.673Z" transform="translate(-662.445 -396.104)" fill="#e4e4e4"/>
    <path id="Path_32565" data-name="Path 32565" d="M961.887,446.673v33.009a51.062,51.062,0,0,1-6.2,3.173q-2.1.907-4.249,1.656V446.673Z" transform="translate(-835.636 -396.104)" fill="#cacaca"/>
    <rect id="Rectangle_4099" data-name="Rectangle 4099" width="3.918" height="3.918" transform="translate(95.017 57.978)" fill="#fff"/>
    <rect id="Rectangle_4100" data-name="Rectangle 4100" width="3.918" height="3.918" transform="translate(101.329 57.978)" fill="#fff"/>
    <rect id="Rectangle_4101" data-name="Rectangle 4101" width="3.918" height="3.918" transform="translate(107.641 57.978)" fill="#fff"/>
    <rect id="Rectangle_4102" data-name="Rectangle 4102" width="3.918" height="3.918" transform="translate(95.125 66.902)" fill="#fff"/>
    <rect id="Rectangle_4103" data-name="Rectangle 4103" width="3.918" height="3.918" transform="translate(101.438 66.902)" fill="#fff"/>
    <rect id="Rectangle_4104" data-name="Rectangle 4104" width="3.918" height="3.918" transform="translate(107.75 66.902)" fill="#fff"/>
    <rect id="Rectangle_4105" data-name="Rectangle 4105" width="3.918" height="3.918" transform="translate(95.234 75.826)" fill="#fff"/>
    <rect id="Rectangle_4106" data-name="Rectangle 4106" width="3.918" height="3.918" transform="translate(101.546 75.826)" fill="#fff"/>
    <rect id="Rectangle_4107" data-name="Rectangle 4107" width="3.918" height="3.918" transform="translate(107.859 75.826)" fill="#fff"/>
    <rect id="Rectangle_4108" data-name="Rectangle 4108" width="3.918" height="3.918" transform="translate(95.343 84.75)" fill="#fff"/>
    <rect id="Rectangle_4109" data-name="Rectangle 4109" width="3.918" height="3.918" transform="translate(101.655 84.75)" fill="#fff"/>
    <rect id="Rectangle_4110" data-name="Rectangle 4110" width="3.918" height="3.918" transform="translate(107.967 84.75)" fill="#fff"/>
    <path id="Path_32566" data-name="Path 32566" d="M775.912,774.564a6.966,6.966,0,0,0,7.231,4.731,10.265,10.265,0,0,0,8.361-4.822Z" transform="translate(-682.944 -681.257)" fill="#3f3d56"/>
    <path id="Path_32567" data-name="Path 32567" d="M85.181,552.927l-1.668,3.054.271,5.733,39.962,11.874,17.4,2.14-3.4-20.753-11.9-2.108-17.859.51-15.141-2.794Z" transform="translate(-72.648 -478.951)" fill="#2f2e41"/>
    <path id="Path_32568" data-name="Path 32568" d="M153.848,660.071h-1.032a5.223,5.223,0,0,1-4.752-3.015c-1.59-3.472-1.119-8.273-1.112-8.341.36-4.15,2.635-6.857,5.66-6.734,3.339.135,6.187,11.685,6.307,12.177a4.3,4.3,0,0,1-.15,2.5A5.205,5.205,0,0,1,153.848,660.071Z" transform="translate(-135.753 -565.998)" fill="#3f3d56"/>
    <path id="Path_32569" data-name="Path 32569" d="M466.634,691.929a3.626,3.626,0,0,1-.526-.051,8.157,8.157,0,0,1-6.16-4.689c-.418-.909-.821-1.841-1.2-2.768-1.507-3.724-.244-10.233,1.809-12.753,1.812-2.224,3.636-2.206,6.4-2.18.283,0,.577.005.882.006,3.065.005,6.306,11.281,7.371,14.987.085.295.155.539.209.722a3.691,3.691,0,0,1-.059,2,6.14,6.14,0,0,1-5.329,4.454C468.209,691.838,467.066,691.929,466.634,691.929Z" transform="translate(-406.471 -589.925)" fill="#3f3d56"/>
    <path id="Path_32570" data-name="Path 32570" d="M144.373,606.745s-1.172-5.227.586-8.787l1.771-4.281,6.693,6.219,1.528,9.73,26.192,3.968s-1.622-15.952,8.562-16.583,15.016,16.583,15.016,16.583l5.081,3.7,35.418-2.614s.625,1.712-.273,2.614-43.887,3.695-43.887,3.695-2.163-21.359-10.725-19.376-6,17.011-6,17.011l-30.589-5.385s-.991-14.51-6.038-14.51S144.373,606.745,144.373,606.745Z" transform="translate(-133.237 -523.982)" fill="#3f3d56"/>
    <path id="Path_32571" data-name="Path 32571" d="M128.387,426.339l5.77-9.045,24.6-1.442,27.307.361,12.707,11.806-39.294,2.253-31.633-1.712Z" transform="translate(-111.216 -361.748)" fill="#3f3d56"/>
    <path id="Path_32572" data-name="Path 32572" d="M156.884,554.445s-4.909.1-5.45,9.385c0,0,5.227-9.463,9.733,11.626l26.9,4.371s-.991-17.574,9.193-16.222,12.617,17.484,12.617,17.484,1.983,3.965,12.888,3.335,27.217-1.622,28.93-3.875c0,0,3.965-13.428-8.381-22.08l-16.042-2.343-36.32.721Z" transform="translate(-139.712 -489.854)" fill="#004a92"/>
    <path id="Path_32573" data-name="Path 32573" d="M263.192,594.593h-3.064a.631.631,0,1,1,0-1.262h3.064a.631.631,0,0,1,0,1.262Z" transform="translate(-233.716 -523.681)" fill="#cacaca"/>
    <circle id="Ellipse_381" data-name="Ellipse 381" cx="1.983" cy="1.983" r="1.983" transform="translate(74.132 86.548)" fill="#fff"/>
    <path id="Path_32574" data-name="Path 32574" d="M589.749,602.014a7.57,7.57,0,0,1-4.429-1.7c-2.56-1.972-3.635-4.883-2.4-6.49s4.327-1.31,6.887.662a7.9,7.9,0,0,1,2.622,3.372,3.176,3.176,0,0,1-.225,3.118A2.985,2.985,0,0,1,589.749,602.014Z" transform="translate(-514.617 -523.212)" fill="#fff"/>
    <path id="Path_32575" data-name="Path 32575" d="M858.984,591.89c-1,0-2.793-1.011-4.569-2.652a13.462,13.462,0,0,1-2.483-2.969c-.545-.946-.67-1.657-.35-2s1.039-.278,2.024.191a13.463,13.463,0,0,1,3.156,2.241c2.247,2.076,3.491,4.26,2.833,4.972A.8.8,0,0,1,858.984,591.89Z" transform="translate(-748.619 -515.606)" fill="#fff"/>
    <path id="Path_32576" data-name="Path 32576" d="M217.605,499.957q-.032,0-.065,0l-6.517-.606a.7.7,0,0,1-.531-1.068l3.675-5.925a.7.7,0,0,1,.565-.331l4.86-.214a.7.7,0,0,1,.7.9l-2.019,6.745A.7.7,0,0,1,217.605,499.957Z" transform="translate(-190.996 -435.368)" fill="#fff"/>
    <path id="Path_32577" data-name="Path 32577" d="M309.366,489.5q-.1,0-.194-.009l-11.266-1.109a1.967,1.967,0,0,1-1.7-2.475l1.621-5.947a1.958,1.958,0,0,1,1.829-1.448l9.092-.318a1.978,1.978,0,0,1,2.022,1.739l.75,6.472a1.963,1.963,0,0,1-.032.647l-.2.9a1.968,1.968,0,0,1-1.92,1.547Z" transform="translate(-265.585 -423.521)" fill="#fff"/>
    <path id="Path_32578" data-name="Path 32578" d="M442.388,490.544a1.466,1.466,0,0,1-1.422-1.131l-1.988-8.591a1.46,1.46,0,0,1,1.422-1.789h23.568a1.468,1.468,0,0,1,1.048.443l7.7,7.937a1.46,1.46,0,0,1-1.015,2.476l-29.279.654Z" transform="translate(-389.814 -424.254)" fill="#fff"/>
    <path id="Path_32579" data-name="Path 32579" d="M236.13,458.431l.2-.315s1.172-3.244,17.3-3.785,31.183-.27,34.607,2.7l-27.848-.09-23.522,1.622Z" transform="translate(-213.389 -402.57)" fill="#004a92"/>
    <path id="Path_32580" data-name="Path 32580" d="M156.922,665.026c-1.692,0-3.064,2.824-3.064,6.309s1.372,6.309,3.064,6.309,3.064-2.824,3.064-6.309S158.614,665.026,156.922,665.026Zm.135,1.352c.373,0,.676.726.676,1.622s-.3,1.622-.676,1.622-.676-.726-.676-1.622.3-1.622.676-1.622Zm.406,4.957a.458.458,0,1,1-.451-.541.5.5,0,0,1,.451.541Zm-2.354.347c-.58.045-1.064-.115-1.083-.356s.436-.474,1.015-.518,1.064.115,1.083.356-.436.473-1.015.518Zm1.949,4.61c-.373,0-.676-.726-.676-1.622s.3-1.622.676-1.622.676.726.676,1.622-.3,1.622-.676,1.622Zm1.746-4.61c-.58.045-1.064-.115-1.083-.356s.436-.474,1.015-.518,1.064.115,1.083.356-.436.473-1.015.518Z" transform="translate(-141.821 -586.048)" fill="#e4e4e4"/>
    <path id="Path_32581" data-name="Path 32581" d="M473.908,697.583c-2.688,0-4.867,3.611-4.867,8.066s2.179,8.066,4.867,8.066,4.867-3.611,4.867-8.066S476.6,697.583,473.908,697.583ZM471,706.254c-.785.061-1.442-.155-1.467-.482s.591-.641,1.375-.7,1.442.155,1.467.482-.591.641-1.376.7Zm2.91,6.154c-.506,0-.916-.984-.916-2.2s.41-2.2.916-2.2.916.984.916,2.2S474.417,712.408,473.911,712.408Zm-.724-6.714a.733.733,0,1,1,.721.865A.8.8,0,0,1,473.187,705.694Zm.724-2.32c-.506,0-.916-.984-.916-2.2s.41-2.2.916-2.2.916.984.916,2.2-.41,2.2-.916,2.2Zm3.086,2.7c-.785.061-1.442-.155-1.467-.482s.591-.641,1.375-.7,1.442.155,1.467.482S477.782,706.014,477,706.074Z" transform="translate(-415.999 -614.37)" fill="#e4e4e4"/>
    <path id="Path_32582" data-name="Path 32582" d="M375.525,563.139l1.081,2.523s1.8.721,2.974-1.712l-2.374-2.374Z" transform="translate(-334.649 -496.057)" fill="#cacaca"/>
    <path id="Path_32583" data-name="Path 32583" d="M340.6,546.756c-1.938,0-3.515-1.051-3.515-2.343s1.577-2.343,3.515-2.343,3.515,1.051,3.515,2.343S342.533,546.756,340.6,546.756Z" transform="translate(-301.206 -479.089)" fill="#cacaca"/>
    <path id="Path_32584" data-name="Path 32584" d="M717.8,641.474l-20.15.589s-4.41,1.237-4.86,4.771c0,0,.63,2.886,2.25,2.886s26.458-1.3,26.458-1.3,1.62-2.474.27-4.241A9.989,9.989,0,0,0,717.8,641.474Z" transform="translate(-610.633 -565.561)" fill="#3f3d56"/>
    <rect id="Rectangle_4111" data-name="Rectangle 4111" width="23.643" height="0.27" transform="matrix(0.999, -0.033, 0.033, 0.999, 85.276, 77.821)" fill="#e4e4e4"/>
    <rect id="Rectangle_4112" data-name="Rectangle 4112" width="25.726" height="0.27" transform="translate(84.067 79.061) rotate(-2.594)" fill="#e4e4e4"/>
    <rect id="Rectangle_4113" data-name="Rectangle 4113" width="27.6" height="0.27" transform="translate(83.105 80.54) rotate(-3.074)" fill="#e4e4e4"/>
    <g id="Group_142" data-name="Group 142" transform="translate(0 45.279)">
      <path id="Path_2185" data-name="Path 2185" d="M174.582,584.878a1.226,1.226,0,0,1,.4-1.837l-.256-2.789,1.657-.569.306,3.945a1.232,1.232,0,0,1-2.1,1.252Z" transform="translate(-159.623 -557.087)" fill="#ffb8b8"/>
      <path id="Path_2186" data-name="Path 2186" d="M176.172,485.014s1.137-2.387,2.148-1.548-1.385,7.9-1.385,7.9l-.364,6.852-1.921-.192-.543-6.675Z" transform="translate(-159.435 -473.234)" fill="#e6e6e6"/>
      <path id="Path_2187" data-name="Path 2187" d="M72.732,731.2l1.426,1.154,5.13-4.951-2.1-1.7Z" transform="translate(-71.249 -684.106)" fill="#ffb8b8"/>
      <path id="Path_2188" data-name="Path 2188" d="M62.833,762.125,65.64,764.4h0a2.3,2.3,0,0,1,.341,3.238l-.047.058-4.6-3.721Z" transform="translate(-61.337 -715.794)" fill="#2f2e41"/>
      <path id="Path_2189" data-name="Path 2189" d="M225.025,745.281h1.834l.872-7.076h-2.707Z" transform="translate(-203.729 -694.987)" fill="#ffb8b8"/>
      <path id="Path_2190" data-name="Path 2190" d="M221.431,787.987h3.612a2.3,2.3,0,0,1,2.3,2.3v.075h-5.914Z" transform="translate(-200.602 -738.292)" fill="#2f2e41"/>
      <path id="Path_2191" data-name="Path 2191" d="M108.713,537.647s3.441,4.189,2.693,8.379-1.347,7.331-1.347,7.331l-1.2,9.426s.449,2.567-.15,3.229a1.427,1.427,0,0,1-.748,2.158,2.51,2.51,0,0,1-2.534-.206s-1.207-1.738-.459-2.187l.315-18.5L93.3,562.932s-.22,1.9-1.756,1.925l-1.835,1.367-2.095-1.2,1.047-1.347s-.6-1.5.748-1.8l7.78-10.174,1.945-5.237s1.047-4.04,3.89-5.685v-1.751Z" transform="translate(-84.198 -520.521)" fill="#2f2e41"/>
      <path id="Path_2192" data-name="Path 2192" d="M192.467,475.107h0a2.857,2.857,0,0,1,3.766-.532l.124.083h0a11.028,11.028,0,0,1,2.582,5.315l.56,3.063-7.032,1.523-1.648-5.685a3.212,3.212,0,0,1,1.648-3.767Z" transform="translate(-173.861 -465.238)" fill="#e6e6e6"/>
      <path id="Path_2193" data-name="Path 2193" d="M274.228,583.972a1.4,1.4,0,0,1-.8-2l-2.029-2.483,1.208-1.6,2.815,3.546a1.411,1.411,0,0,1-1.195,2.534Z" transform="translate(-244.07 -555.53)" fill="#ffb8b8"/>
      <path id="Path_2194" data-name="Path 2194" d="M226.919,480.077s-.449-2.992,1.047-2.843,3.74,8.379,3.74,8.379l4.04,6.733-1.945,1.047-4.788-5.985Z" transform="translate(-205.322 -467.964)" fill="#e6e6e6"/>
      <path id="Path_2195" data-name="Path 2195" d="M197.068,413.752h-7.125a.553.553,0,0,1-.553-.553v-3.071a4.115,4.115,0,1,1,8.23,0h0V413.2A.553.553,0,0,1,197.068,413.752Z" transform="translate(-172.73 -406.013)" fill="#2f2e41"/>
      <circle id="Ellipse_430" data-name="Ellipse 430" cx="3.017" cy="3.017" r="3.017" transform="translate(18.604 1.633)" fill="#ffb8b8"/>
      <path id="Path_2196" data-name="Path 2196" d="M218.615,417.828h-3.8l-.039-.625-.195.625H214l-.077-1.24-.386,1.24h-1.131v-.061a3.071,3.071,0,0,1,2.838-3.255h.535a3.072,3.072,0,0,1,2.838,3.255Z" transform="translate(-192.751 -413.406)" fill="#2f2e41"/>
      <path id="Path_2197" data-name="Path 2197" d="M201.013,421.58a.912.912,0,0,1-.139-.011l-4.519-.7v-4.707a1.813,1.813,0,0,1,1.813-1.813h3.162l-.123.125c-1.714,1.744-.423,4.574.5,6.105a.6.6,0,0,1-.061.715.821.821,0,0,1-.632.282Z" transform="translate(-178.789 -413.268)" fill="#2f2e41"/>
    </g>
  </g>
</svg>
