<svg id="Component_98_1" data-name="Component 98 – 1" xmlns="http://www.w3.org/2000/svg" xmlns:xlink="http://www.w3.org/1999/xlink" width="152" height="112" viewBox="0 0 152 112">
  <defs>
    <linearGradient id="linear-gradient" x1="0.5" y1="1" x2="0.5" gradientUnits="objectBoundingBox">
      <stop offset="0" stop-color="gray" stop-opacity="0.251"/>
      <stop offset="0.54" stop-color="gray" stop-opacity="0.122"/>
      <stop offset="1" stop-color="gray" stop-opacity="0.102"/>
    </linearGradient>
    <linearGradient id="linear-gradient-2" x1="0.5" y1="1" x2="0.5" y2="0" xlink:href="#linear-gradient"/>
  </defs>
  <rect id="Rectangle_4383" data-name="Rectangle 4383" width="152" height="112" fill="none"/>
  <g id="Group_8011" data-name="Group 8011" transform="translate(-427.967 -551.643)">
    <path id="Path_32684" data-name="Path 32684" d="M90.53,356.76H103.1v17.128H91.449c-.03.177-.059.353-.093.53H103.1v13.811a.176.176,0,0,1-.058-.022q-.5-.2-.991-.417c-.071-.032-.14-.066-.212-.1q-.5-.234-.991-.5c-.115-.061-.23-.124-.343-.188a20.607,20.607,0,0,1-4.94-3.846c-.043-.041-.083-.085-.124-.124-.2-.218-.4-.438-.588-.664-.072-.083-.141-.167-.212-.248-.225-.275-.443-.56-.654-.846-.032-.043-.062-.085-.093-.124a18.291,18.291,0,0,1-2.13-3.851c-.017-.041-.033-.085-.05-.124-.171-.433-.326-.873-.459-1.321-.057-.187-.113-.371-.16-.566-.017-.056-.031-.113-.046-.168a34.18,34.18,0,0,1-.776-8.43v-.991q.015-1.737.041-3.471.01-.446.019-.9.026-1.138.074-2.281c.007-.21.017-.422.028-.631q.007-.182.019-.364Q90.484,357.409,90.53,356.76Z" transform="translate(350.583 239.338)" fill="#6881c4" opacity="0.1"/>
    <path id="Path_32685" data-name="Path 32685" d="M145.073,141.109H138.18a52.466,52.466,0,0,1,3.666-5.044c1.025-1.258,2.1-2.484,3.227-3.665Z" transform="translate(308.605 435.918)" fill="#6881c4" opacity="0.3"/>
    <path id="Path_32686" data-name="Path 32686" d="M105.216,207v18.013H92.69c0-.052.007-.105.012-.157.011-.142.022-.284.035-.426.012-.166.028-.332.045-.5s.032-.362.052-.541.036-.362.056-.541.04-.359.062-.537.042-.359.067-.537c.019-.147.037-.3.058-.445.028-.209.058-.419.089-.627a.6.6,0,0,1,.015-.094,43.2,43.2,0,0,1,.921-4.522,33.479,33.479,0,0,1,1.554-4.581A34.4,34.4,0,0,1,97.993,207Z" transform="translate(348.462 370.555)" fill="#6881c4" opacity="0.3"/>
    <path id="Path_32687" data-name="Path 32687" d="M218.09,60.438V77.566h26.839V60.438Zm0,17.658v14.71c.154.031.3.062.457.088.2.04.41.076.619.106l.124.017c.082.014.165.025.248.035.207.03.414.052.619.072.1.01.2.017.295.026l.239.017h0c.13.01.259.017.388.022.079,0,.158.006.239.009s.124,0,.188,0h.688c.106,0,.213,0,.318-.01h.006a1.9,1.9,0,0,0,.222-.009.542.542,0,0,0,.063,0,1.493,1.493,0,0,0,.183-.007.259.259,0,0,1,.042,0c.137-.009.276-.02.416-.032s.272-.027.412-.042l.281-.035a24.657,24.657,0,0,0,3.4-.723c2.5-.7,4.953-1.675,7.456-2.39,3.234-.922,6.81-1.377,9.935-.254V78.1Zm26.839-36.728v-22.8a34.487,34.487,0,0,0-8.719,1.022,42.819,42.819,0,0,0-18.12,10.141V41.367h1.351V41.9H218.09V59.908h26.839V41.9H224.967v-.53Zm34.481-7.7a11.111,11.111,0,0,1-4.866-1.414c-2.89-1.571-5.2-4-7.781-6.049a35.725,35.725,0,0,0-18.832-7.484V41.368h38.311l.1-.1Zm3.49-.619,3.7,4.063V31.977a14.817,14.817,0,0,0-3.7,1.064Zm3.7,63.413V78.1h-7.892c-.02-.078-.042-.157-.067-.236.024.079.045.158.066.236H247.932V91.375c.292.217.581.446.867.676h0q.463.379.92.766l.307.254c.147.124.3.248.446.365q.447.36.9.713.227.178.456.35a62.167,62.167,0,0,0,7.632,4.991c.6.333,1.2.654,1.807.967q.605.312,1.22.612.921.449,1.857.867h0A68.174,68.174,0,0,0,282.42,107.2q2.078.306,4.174.483V96.456h.124ZM247.932,41.9V59.908H286.6V41.9Zm0,18.541v17.13H286.6V60.438ZM289.6,31.953v5.733l4.722-5.184Q291.978,32.114,289.6,31.953Zm0,28.486V77.566h37.61V60.438ZM327.08,97.817l.132-19.721H289.6v29.787a67.765,67.765,0,0,0,7.268-.088h.042q1.733-.111,3.451-.317h.026a63.457,63.457,0,0,0,17.735-4.737m16.344-39.49q-.214-.5-.44-.991c-.28-.619-.575-1.221-.879-1.821h-2.935V77.566h7.418A37.062,37.062,0,0,0,334.469,63.252ZM330.216,78.1V95.059a24.274,24.274,0,0,0,5.126-6.914,23.8,23.8,0,0,0,2.287-10.05Zm0-22.649V59.9h2.66a48.424,48.424,0,0,0-2.66-4.457ZM304.709,35.314c-.2-.076-.393-.151-.589-.223a53.51,53.51,0,0,0-6.352-1.909l-7.229,7.932h0l-.141.152.093.1h25.727a54.964,54.964,0,0,0-11.509-6.052ZM316.973,41.9H290.13l-.527.482V59.908h37.61V51.414A53.55,53.55,0,0,0,316.973,41.9Z" transform="translate(238.589 535.66)" fill="#6881c4" opacity="0.3"/>
    <path id="Path_32688" data-name="Path 32688" d="M105.216,280.39v8.926H92.69c0-.052.007-.105.012-.157.011-.142.022-.284.035-.426.012-.166.028-.332.045-.5s.032-.362.052-.541.036-.362.056-.541.04-.359.062-.537.042-.359.067-.537c.019-.147.037-.3.058-.445.028-.209.058-.419.089-.627a.6.6,0,0,1,.015-.094,43.2,43.2,0,0,1,.921-4.522Z" transform="translate(348.462 306.252)" fill="#6881c4" opacity="0.3"/>
    <path id="Path_32689" data-name="Path 32689" d="M90.53,356.76H103.1v17.128H91.449c-.03.177-.059.353-.093.53H103.1v13.811a.176.176,0,0,1-.058-.022q-.5-.2-.991-.417c-.071-.032-.14-.066-.212-.1q-.5-.234-.991-.5c-.115-.061-.23-.124-.343-.188a20.607,20.607,0,0,1-4.94-3.846c-.043-.041-.083-.085-.124-.124-.2-.218-.4-.438-.588-.664-.072-.083-.141-.167-.212-.248-.225-.275-.443-.56-.654-.846-.032-.043-.062-.085-.093-.124a18.291,18.291,0,0,1-2.13-3.851c-.017-.041-.033-.085-.05-.124-.171-.433-.326-.873-.459-1.321-.057-.187-.113-.371-.16-.566-.017-.056-.031-.113-.046-.168a34.18,34.18,0,0,1-.776-8.43v-.991q.015-1.737.041-3.471.01-.446.019-.9.026-1.138.074-2.281c.007-.21.017-.422.028-.631q.007-.182.019-.364Q90.484,357.409,90.53,356.76Z" transform="translate(350.209 239.338)" fill="#6881c4" opacity="0.3"/>
    <path id="Path_32690" data-name="Path 32690" d="M211.579,172.305v15.433H202.13V172.305h1.347V167.08h5.53v5.225Z" transform="translate(254.548 407.83)" fill="#6881c4" opacity="0.1"/>
    <rect id="Rectangle_4194" data-name="Rectangle 4194" width="9.447" height="17.128" transform="translate(456.678 596.097)" fill="#6881c4" opacity="0.1"/>
    <path id="Path_32691" data-name="Path 32691" d="M218.09,499.37h9.447v14.239a24.479,24.479,0,0,1-3.4.722c-.094.014-.187.025-.281.035-.139.016-.276.031-.414.043l-.415.033h-.042l-.183.01h-.063c-.074,0-.147.009-.222.01h-.006c-.107,0-.212.007-.318.01h-.877a1.952,1.952,0,0,1-.24-.01q-.191-.007-.386-.022h0l-.239-.017c-.1-.007-.2-.017-.3-.027q-.312-.027-.619-.071l-.248-.035-.124-.017c-.207-.031-.412-.066-.619-.105-.154-.027-.3-.058-.457-.09Z" transform="translate(238.589 114.386)" fill="#6881c4" opacity="0.1"/>
    <rect id="Rectangle_4195" data-name="Rectangle 4195" width="7.791" height="17.254" transform="translate(517.399 578.313)" fill="#6881c4" opacity="0.1"/>
    <path id="Path_32692" data-name="Path 32692" d="M481.82,338.19v17.129H443.15v-7.388h20.6v4.358h10.281v-14.1Z" transform="translate(43.371 257.906)" fill="#6881c4" opacity="0.1"/>
    <path id="Path_32693" data-name="Path 32693" d="M497.892,516.063a.7.7,0,0,1-.124-.007v11.237q-2.094-.172-4.173-.482a68.267,68.267,0,0,1-18.085-5.262q-2.493-1.124-4.883-2.45A62.407,62.407,0,0,1,463,514.106q-.914-.7-1.8-1.428c-.41-.339-.816-.686-1.23-1.021-.285-.232-.573-.461-.867-.679V497.7h30.776c-.022-.079-.042-.157-.064-.237.023.079.046.157.066.237h7.892v18.357C497.811,516.055,497.852,516.059,497.892,516.063Z" transform="translate(27.421 116.059)" fill="#6881c4" opacity="0.1"/>
    <path id="Path_32694" data-name="Path 32694" d="M899.587,158.326H894.51v-1.577h2.275v-4.7q.3.109.589.223v4.476h2.211Z" transform="translate(-354.077 418.701)" fill="#6881c4" opacity="0.1"/>
    <path id="Path_32695" data-name="Path 32695" d="M825.2,225.013H795.65V207.759h1.31v12.753h5.985v-7.553h4.947V207h5.077v5.963h4.944v7.553H825.2Z" transform="translate(-267.458 370.555)" fill="#6881c4" opacity="0.1"/>
    <path id="Path_32696" data-name="Path 32696" d="M795.65,356.76v17.128H825.2V356.76Zm37.568,37.288.042-13.558H825.2v-6.067H795.65V404.2a67.769,67.769,0,0,0,7.268-.088h.042q1.733-.111,3.451-.317h.026a63.454,63.454,0,0,0,17.735-4.737" transform="translate(-267.458 239.338)" fill="#6881c4" opacity="0.1"/>
    <path id="Path_32697" data-name="Path 32697" d="M1124.17,499.37h6.893a23.812,23.812,0,0,1-2.287,10.049,24.265,24.265,0,0,1-5.126,6.915v-10.9h.52Z" transform="translate(-554.845 114.386)" fill="#6881c4" opacity="0.1"/>
    <path id="Path_32698" data-name="Path 32698" d="M1134.748,393.795h-6.9V379.48h3.733A37.063,37.063,0,0,1,1134.748,393.795Z" transform="translate(-558.525 219.431)" fill="#6881c4" opacity="0.1"/>
    <rect id="Rectangle_4196" data-name="Rectangle 4196" width="4.174" height="5.41" transform="translate(521.017 583.109)" fill="#6881c4" opacity="0.3"/>
    <rect id="Rectangle_4197" data-name="Rectangle 4197" width="4.174" height="1.246" transform="translate(521.017 594.323)" fill="#6c63ff" opacity="0.1"/>
    <rect id="Rectangle_4198" data-name="Rectangle 4198" width="4.174" height="3.634" transform="translate(521.017 596.097)" fill="#6881c4" opacity="0.3"/>
    <rect id="Rectangle_4199" data-name="Rectangle 4199" width="4.174" height="5.41" transform="translate(521.017 605.535)" fill="#6881c4" opacity="0.3"/>
    <rect id="Rectangle_4200" data-name="Rectangle 4200" width="4.174" height="5.41" transform="translate(521.017 616.749)" fill="#6881c4" opacity="0.3"/>
    <path id="Path_32699" data-name="Path 32699" d="M741.874,618.252a.606.606,0,0,1,.124.009.7.7,0,0,1-.124-.007v1.257H737.7V614.1h4.174Z" transform="translate(-216.683 13.862)" fill="#6881c4" opacity="0.3"/>
    <path id="Path_32700" data-name="Path 32700" d="M741.874,704.65v4.178q-2.095-.172-4.174-.482v-3.7Z" transform="translate(-216.683 -65.476)" fill="#6881c4" opacity="0.3"/>
    <rect id="Rectangle_4201" data-name="Rectangle 4201" width="17.888" height="0.397" transform="translate(486.521 612.828)" fill="#6c63ff" opacity="0.1"/>
    <rect id="Rectangle_4202" data-name="Rectangle 4202" width="17.888" height="1.523" transform="translate(486.521 613.755)" fill="#6881c4" opacity="0.3"/>
    <rect id="Rectangle_4203" data-name="Rectangle 4203" width="17.888" height="2.449" transform="translate(486.521 620.27)" fill="#6881c4" opacity="0.3"/>
    <path id="Path_32701" data-name="Path 32701" d="M483.121,612.08v2.449H469.13q-.914-.7-1.8-1.429c-.411-.338-.817-.685-1.23-1.02Z" transform="translate(21.288 15.632)" fill="#6881c4" opacity="0.3"/>
    <path id="Path_32702" data-name="Path 32702" d="M558.561,672.17v2.455h-1.477q-2.492-1.124-4.883-2.45Z" transform="translate(-54.152 -37.019)" fill="#6881c4" opacity="0.3"/>
    <rect id="Rectangle_4204" data-name="Rectangle 4204" width="3.521" height="3.521" transform="translate(535.46 597.758)" fill="#6c63ff" opacity="0.1"/>
    <rect id="Rectangle_4205" data-name="Rectangle 4205" width="3.521" height="3.521" transform="translate(459.215 581.35)" fill="#6881c4" opacity="0.59"/>
    <rect id="Rectangle_4206" data-name="Rectangle 4206" width="3.521" height="3.521" transform="translate(459.215 589.53)" fill="#6881c4" opacity="0.59"/>
    <rect id="Rectangle_4207" data-name="Rectangle 4207" width="3.521" height="3.521" transform="translate(459.215 597.709)" fill="#6881c4" opacity="0.59"/>
    <rect id="Rectangle_4208" data-name="Rectangle 4208" width="3.521" height="3.521" transform="translate(459.215 605.888)" fill="#6881c4" opacity="0.59"/>
    <rect id="Rectangle_4209" data-name="Rectangle 4209" width="3.521" height="3.521" transform="translate(459.215 614.067)" fill="#6881c4" opacity="0.59"/>
    <rect id="Rectangle_4210" data-name="Rectangle 4210" width="3.521" height="3.521" transform="translate(459.215 622.247)" fill="#6881c4" opacity="0.59"/>
    <rect id="Rectangle_4211" data-name="Rectangle 4211" width="3.521" height="3.521" transform="translate(548.903 597.758)" fill="#6881c4" opacity="0.3"/>
    <rect id="Rectangle_4212" data-name="Rectangle 4212" width="3.521" height="3.521" transform="translate(535.46 606.443)" fill="#6c63ff" opacity="0.1"/>
    <rect id="Rectangle_4213" data-name="Rectangle 4213" width="3.521" height="3.521" transform="translate(548.903 606.443)" fill="#6881c4" opacity="0.3"/>
    <rect id="Rectangle_4214" data-name="Rectangle 4214" width="3.521" height="3.521" transform="translate(535.46 615.128)" fill="#6c63ff" opacity="0.1"/>
    <rect id="Rectangle_4215" data-name="Rectangle 4215" width="3.521" height="3.521" transform="translate(548.903 615.128)" fill="#6881c4" opacity="0.3"/>
    <rect id="Rectangle_4216" data-name="Rectangle 4216" width="3.521" height="3.521" transform="translate(535.46 623.814)" fill="#6c63ff" opacity="0.1"/>
    <rect id="Rectangle_4217" data-name="Rectangle 4217" width="3.521" height="3.521" transform="translate(548.903 623.814)" fill="#6881c4" opacity="0.3"/>
    <rect id="Rectangle_4218" data-name="Rectangle 4218" width="3.521" height="3.521" transform="translate(535.46 632.499)" fill="#6c63ff" opacity="0.1"/>
    <rect id="Rectangle_4219" data-name="Rectangle 4219" width="3.521" height="3.521" transform="translate(548.903 632.499)" fill="#6881c4" opacity="0.3"/>
    <path id="Path_32703" data-name="Path 32703" d="M838.4,704.6V702.33h3.52v1.948Z" transform="translate(-302.94 -61.146)" fill="#6c63ff" opacity="0.1"/>
    <path id="Path_32704" data-name="Path 32704" d="M96.53,316.91v2.015h12.05V316.91Zm1.2,1.888h-.991v-1.761h.991Zm1.2,0h-.991v-1.761h.991Zm1.2,0h-.991v-1.761h.991Zm1.2,0h-.991v-1.761h.991Zm1.2,0h-.991v-1.761h.991Zm1.2,0h-.991v-1.761h.991Zm1.2,0h-.991v-1.761h.991Zm1.2,0h-.991v-1.761h.991Zm1.2,0h-.991v-1.761h.991Zm1.2,0h-.991v-1.761h.991Z" transform="translate(345.098 274.254)" fill="#6c63ff" opacity="0.1"/>
    <path id="Path_32705" data-name="Path 32705" d="M96.53,364.27v2.015h12.05V364.27Zm1.2,1.888h-.991V364.4h.991Zm1.2,0h-.991V364.4h.991Zm1.2,0h-.991V364.4h.991Zm1.2,0h-.991V364.4h.991Zm1.2,0h-.991V364.4h.991Zm1.2,0h-.991V364.4h.991Zm1.2,0h-.991V364.4h.991Zm1.2,0h-.991V364.4h.991Zm1.2,0h-.991V364.4h.991Zm1.2,0h-.991V364.4h.991Z" transform="translate(345.098 232.758)" fill="#6c63ff" opacity="0.1"/>
    <path id="Path_32706" data-name="Path 32706" d="M96.53,411.64v2.013h12.05V411.64Zm1.2,1.886h-.991v-1.761h.991Zm1.2,0h-.991v-1.761h.991Zm1.2,0h-.991v-1.761h.991Zm1.2,0h-.991v-1.761h.991Zm1.2,0h-.991v-1.761h.991Zm1.2,0h-.991v-1.761h.991Zm1.2,0h-.991v-1.761h.991Zm1.2,0h-.991v-1.761h.991Zm1.2,0h-.991v-1.761h.991Zm1.2,0h-.991v-1.761h.991Z" transform="translate(345.098 191.254)" fill="#6c63ff" opacity="0.1"/>
    <path id="Path_32707" data-name="Path 32707" d="M96.53,459v2.013h12.05V459Zm1.2,1.887h-.991v-1.763h.991Zm1.2,0h-.991v-1.763h.991Zm1.2,0h-.991v-1.763h.991Zm1.2,0h-.991v-1.763h.991Zm1.2,0h-.991v-1.763h.991Zm1.2,0h-.991v-1.763h.991Zm1.2,0h-.991v-1.763h.991Zm1.2,0h-.991v-1.763h.991Zm1.2,0h-.991v-1.763h.991Zm1.2,0h-.991v-1.763h.991Z" transform="translate(345.098 149.757)" fill="#6c63ff" opacity="0.1"/>
    <path id="Path_32708" data-name="Path 32708" d="M97,506.34c.047.191.1.379.16.566v-.438h.991v1.76h-.531c.015.042.031.085.048.124H109V506.34Zm2.353,1.887h-.991v-1.76h.991Zm1.2,0h-.991v-1.76h.991Zm1.2,0h-.991v-1.76h.991Zm1.2,0h-.991v-1.76h.991Zm1.2,0h-.991v-1.76h.991Zm1.2,0h-.991v-1.76h.991Zm1.2,0h-.991v-1.76h.991Zm1.2,0h-.991v-1.76h.991Zm1.2,0h-.991v-1.76h.991Z" transform="translate(344.686 108.279)" fill="#6c63ff" opacity="0.1"/>
    <path id="Path_32709" data-name="Path 32709" d="M119.54,553.7c.032.04.062.084.093.124h.655v.846l.212.248v-1.1h.991v1.776h-.407c.04.041.078.084.124.124h7.532V553.7Zm3.152,1.894H121.7v-1.768h.991Zm1.2,0H122.9v-1.768h.991Zm1.2,0H124.1v-1.768h.991Zm1.2,0H125.3v-1.768h.991Zm1.2,0H126.5v-1.768h.991Zm1.2,0H127.7v-1.768h.991Z" transform="translate(324.937 66.783)" fill="#6c63ff" opacity="0.1"/>
    <path id="Path_32710" data-name="Path 32710" d="M172.93,601.06c.114.064.229.124.344.187v-.062h.991v.558c.072.031.14.064.21.1v-.655h.991v1.072a.4.4,0,0,0,.058.021V601.06Z" transform="translate(278.158 25.286)" fill="#6c63ff" opacity="0.1"/>
    <path id="Path_32711" data-name="Path 32711" d="M303.787,221.263Zm-7.627,36.545ZM288.2,239.214c.023.079.045.158.066.236h0C288.249,239.373,288.226,239.294,288.2,239.214Zm15.585-17.951ZM229,202.722v.527h5.531v-.53Zm67.161,55.086ZM288.2,239.214c.023.079.045.158.066.236h0C288.249,239.373,288.226,239.294,288.2,239.214Zm15.585-17.951Zm-7.627,36.545ZM288.2,239.214c.023.079.045.158.066.236h0C288.249,239.373,288.226,239.294,288.2,239.214Z" transform="translate(229.03 374.305)" fill="#6c63ff" opacity="0.1"/>
    <ellipse id="Ellipse_393" data-name="Ellipse 393" cx="12.065" cy="1.938" rx="12.065" ry="1.938" transform="translate(528.476 657.186)" fill="#0e70c7" opacity="0.1"/>
    <ellipse id="Ellipse_394" data-name="Ellipse 394" cx="12.065" cy="1.938" rx="12.065" ry="1.938" transform="translate(474.062 655.249)" fill="#0e70c7" opacity="0.1"/>
    <path id="Path_32712" data-name="Path 32712" d="M415.864,296.219a.066.066,0,0,0-.019-.032c-.185-.182-2.537-3.509-2.537-3.509s-.124-.371-.324-.854a.849.849,0,0,0,.142-.279.959.959,0,0,0,.023-.13c0-.014.01-.025.014-.038a.94.94,0,0,0-.012-.51.886.886,0,0,1-.051.124,2.067,2.067,0,0,0-.186-.414c-.312-.537-.758-.991-1.086-1.514a4.1,4.1,0,0,1-.558-2.719v.146a4.244,4.244,0,0,1,.074-.557,3.866,3.866,0,0,1,.207-.612c.295-.675.771-1.263,1.061-1.94a3.676,3.676,0,0,0,.22-.709,3.975,3.975,0,0,0,.11-1.244,1.986,1.986,0,0,1-.031.3,4.031,4.031,0,0,0-1.138-2.683,6.7,6.7,0,0,0-3.853-1.62,3.53,3.53,0,0,1-1.622-.619,2.82,2.82,0,0,0-1.847-.353,3.047,3.047,0,0,0-1.881.93c-.66.726-.946,1.753-1.716,2.365a7.617,7.617,0,0,1-1.6.8,2.145,2.145,0,0,0-1.232,1.161v.02l-.007.02a3.67,3.67,0,0,0,.35,1.934,7.834,7.834,0,0,1,.212,2.047c.014.837.026,1.675.012,2.514-.006.329-.017.662-.042.991a5.188,5.188,0,0,0-.851.342,16.84,16.84,0,0,0-1.315,1.3l-2.029,7.754.027.031-.027.105.1-.024a10.447,10.447,0,0,0,2.072,1.741l.087,1.52a2.7,2.7,0,0,0,1.507,2.156,9.043,9.043,0,0,1-.332,3.526,3.962,3.962,0,0,0-.438,2.016,6.855,6.855,0,0,1-.022,1.969,3.219,3.219,0,0,0-.024,1.382h0v.407c0,1.373.016,5.774,0,6.271-.024.588,0,9.286,0,9.286a37.741,37.741,0,0,1-.484,5.525,27.478,27.478,0,0,0-.276,5.077s-.232,4.644.587,5.561c0,.041-.007.083-.009.124v.058c-.01.353.058.728.362.843a5.181,5.181,0,0,1,1.592,1.155,2.889,2.889,0,0,0,2.229.577,16.779,16.779,0,0,1,2.215-.1h0s.463-.084.313-.66h0a5.155,5.155,0,0,0-.716-1.274c.047.012.093.022.136.031l.045.009h.035a.479.479,0,0,0,.057,0h.025a.424.424,0,0,0,.069,0h0a3.107,3.107,0,0,1,1.676.867,2.267,2.267,0,0,0,1.486.7,10.558,10.558,0,0,0,1.844-.116,6.786,6.786,0,0,0,1.033-.188c.163-.062.2-.26.151-.483h0a1.257,1.257,0,0,0-.428-.723,3.478,3.478,0,0,1-.661-.825l-.052-.083c.345-.329.97-1.407,1.159-1.629.23-.271-.371-10.188-.371-10.188V328.29l.922-4.705.645-2.49.553-3.759s.968-4.391.67-4.821h0c0-.009-.248-4.529-.508-5.615a12.309,12.309,0,0,1-.017-2.634.52.52,0,0,0,.124-.542,1.129,1.129,0,0,0-.072-.184v-.057a8.526,8.526,0,0,1,1.668-.567c.922-.181.692-.656.692-.656s.208-.407.345-.656a14.309,14.309,0,0,0,0-2.626c-.009-.073-.066-.477-.131-.935.3-.211.681-.472,1.1-.719C416.109,296.848,415.929,296.349,415.864,296.219Zm-12.035,31.392s-.692,1.766-.415,2.218-.046,2.13-.046,2.13l-.232,2.49s-.645,4.618-.415,5.7a38.621,38.621,0,0,1,.269,4.457h0a.31.31,0,0,0-.046.022l-.031.016a6.283,6.283,0,0,0-.467-2.961l-.045-7.017s-.082-8.105.558-9.012a6.82,6.82,0,0,0,.867-2.445s-.139,2.22-.229,2.808A4.629,4.629,0,0,0,403.828,327.611Zm-1.289,17.441c-.006.015-.014.03-.019.043l-.035-.045A.369.369,0,0,0,402.539,345.052Z" transform="translate(84.153 309.728)" fill="url(#linear-gradient)"/>
    <path id="Path_32713" data-name="Path 32713" d="M468.175,833.839a12.294,12.294,0,0,1-2.84.306,2.2,2.2,0,0,1-1.465-.7,3.009,3.009,0,0,0-1.657-.867,1.115,1.115,0,0,1-.371-.052,4.583,4.583,0,0,1-.619-.238,1.149,1.149,0,0,1,.014-.471.754.754,0,0,1,.027-.092.818.818,0,0,1,.416-.463l.045-.021a1.257,1.257,0,0,1,.267-.082,36.431,36.431,0,0,1,4.989.188s.113.2.267.452a3.458,3.458,0,0,0,.654.83,1.269,1.269,0,0,1,.422.728C468.371,833.577,468.336,833.778,468.175,833.839Z" transform="translate(25.577 -176.276)" fill="#fff"/>
    <path id="Path_32714" data-name="Path 32714" d="M468.186,836.293a12.282,12.282,0,0,1-2.839.306,2.215,2.215,0,0,1-1.466-.7,3.019,3.019,0,0,0-1.655-.867,2.867,2.867,0,0,1-.991-.29,1.026,1.026,0,0,1,.2-.833l.619.44s1.657.514,1.964.991a2,2,0,0,0,1.675.791,15.68,15.68,0,0,0,2.642-.313C468.382,836.032,468.348,836.233,468.186,836.293Z" transform="translate(25.566 -178.731)" opacity="0.1"/>
    <path id="Path_32715" data-name="Path 32715" d="M424.89,834.787a16.47,16.47,0,0,0-2.187.1,2.815,2.815,0,0,1-2.205-.581,5.166,5.166,0,0,0-1.571-1.164c-.3-.116-.371-.5-.358-.849v-.058a3.467,3.467,0,0,1,.1-.665l4.818-.1.417.566.064.087.254.345s.115.151.266.371a5.286,5.286,0,0,1,.707,1.283h0C425.347,834.7,424.89,834.787,424.89,834.787Z" transform="translate(62.935 -176.594)" fill="#fff"/>
    <path id="Path_32716" data-name="Path 32716" d="M424.89,840.649a16.47,16.47,0,0,0-2.187.1,2.812,2.812,0,0,1-2.2-.581,5.022,5.022,0,0,0-1.573-1.161c-.3-.116-.371-.5-.358-.849a2.749,2.749,0,0,1,1.351.644,2.929,2.929,0,0,0,1.981,1.332c.763.041,2.62-.1,3.3-.15C425.348,840.565,424.89,840.649,424.89,840.649Z" transform="translate(62.935 -182.456)" opacity="0.1"/>
    <path id="Path_32717" data-name="Path 32717" d="M424.284,831.558c-.056.414-.228.525-.352.55a.241.241,0,0,1-.092,0,.3.3,0,0,1-.048-.007s-4.326.956-5.2.182a.6.6,0,0,1-.062-.064,3.47,3.47,0,0,1,.1-.665l4.818-.1.417.566a.818.818,0,0,1,.416-.463Z" transform="translate(62.968 -176.576)" opacity="0.1"/>
    <path id="Path_32718" data-name="Path 32718" d="M470.887,831.717c-.1.107-.177.167-.228.146a6.314,6.314,0,0,0-2.688-.136,8.354,8.354,0,0,1-2.6.045s0-.238-.011-.619a1.261,1.261,0,0,1,.267-.082,36.424,36.424,0,0,1,4.989.188S470.734,831.467,470.887,831.717Z" transform="translate(21.936 -176.198)" opacity="0.1"/>
    <path id="Path_32719" data-name="Path 32719" d="M428.478,565.3l-.547,3.781-.636,2.506-.911,4.737v5.015s.592,9.977.364,10.25-1.093,1.824-1.321,1.734a6.353,6.353,0,0,0-2.688-.137,8.4,8.4,0,0,1-2.6.046,47.944,47.944,0,0,0-.274-4.965,35.531,35.531,0,0,1,.41-5.74l.228-2.5a5.323,5.323,0,0,0,.046-2.142c-.274-.456.41-2.229.41-2.229a4.664,4.664,0,0,1-.227-1.6c.092-.592.227-2.824.227-2.824a6.964,6.964,0,0,1-.859,2.46c-.633.91-.552,9.066-.552,9.066l.045,7.058c1.14,3.737,0,3.372,0,3.372s-4.326.957-5.2.182-.624-5.654-.624-5.654a28.145,28.145,0,0,1,.274-5.1,38.748,38.748,0,0,0,.479-5.558s-.024-8.748,0-9.338c.017-.5,0-4.929,0-6.315v-.41l.523-1.3,6.191-.775h2.962s4.457,1.047,4.918,1.5a.1.1,0,0,1,.025.027C429.435,560.884,428.478,565.3,428.478,565.3Z" transform="translate(67.171 62.21)" fill="#002e60"/>
    <path id="Path_32720" data-name="Path 32720" d="M472.11,770.88s1.362,3.28,2,3.508S472.11,770.88,472.11,770.88Z" transform="translate(16.022 -123.506)" opacity="0.1"/>
    <path id="Path_32721" data-name="Path 32721" d="M476.18,809.88s4.6.228,4.553.729S476.18,809.88,476.18,809.88Z" transform="translate(12.456 -157.677)" opacity="0.1"/>
    <path id="Path_32722" data-name="Path 32722" d="M426.49,799.29c.182.172,3.508.5,3.234.81a14.614,14.614,0,0,1-2.961.926Z" transform="translate(55.993 -148.398)" opacity="0.1"/>
    <path id="Path_32723" data-name="Path 32723" d="M422.08,753.59a41.824,41.824,0,0,0,.867,4.555,7.074,7.074,0,0,0,1.685.364Z" transform="translate(59.857 -108.357)" opacity="0.1"/>
    <path id="Path_32724" data-name="Path 32724" d="M428.379,279.023c-.652.729-.935,1.763-1.7,2.38a7.518,7.518,0,0,1-1.584.8,2.1,2.1,0,0,0-1.229,1.21,3.745,3.745,0,0,0,.347,1.945,8.053,8.053,0,0,1,.209,2.059c.012.843.026,1.686.011,2.53a7.317,7.317,0,0,1-.828,3.8,29.5,29.5,0,0,0,7.834,1.013,7.905,7.905,0,0,0,1.522-.038,13.063,13.063,0,0,0,1.3-.328,9.94,9.94,0,0,1,2.583-.331,4.338,4.338,0,0,0,1.134-.076,1.119,1.119,0,0,0,.818-.719,1.336,1.336,0,0,0-.209-.976c-.307-.54-.743-.991-1.072-1.523a4.185,4.185,0,0,1-.269-3.763c.292-.68.763-1.272,1.05-1.953a4.118,4.118,0,0,0-.83-4.368,6.56,6.56,0,0,0-3.8-1.629,3.456,3.456,0,0,1-1.6-.619,2.742,2.742,0,0,0-1.825-.354A2.979,2.979,0,0,0,428.379,279.023Z" transform="translate(58.517 308.295)" fill="#3f3d56"/>
    <g id="Group_7988" data-name="Group 7988" transform="translate(482.176 591.387)" opacity="0.1">
      <path id="Path_32725" data-name="Path 32725" d="M531.756,321.912a4.12,4.12,0,0,0-.316,1.891,4.05,4.05,0,0,1,.316-1.342c.291-.68.762-1.272,1.049-1.953a3.951,3.951,0,0,0,.289-1.8,3.85,3.85,0,0,1-.289,1.251C532.517,320.642,532.047,321.232,531.756,321.912Z" transform="translate(-518.129 -318.71)"/>
      <path id="Path_32726" data-name="Path 32726" d="M426.238,324.787c.007.485.015.972.016,1.457q0-1-.016-2a8.034,8.034,0,0,0-.209-2.06,10.2,10.2,0,0,1-.371-1.28,4.292,4.292,0,0,0,.371,1.828A8,8,0,0,1,426.238,324.787Z" transform="translate(-425.433 -320.629)"/>
      <path id="Path_32727" data-name="Path 32727" d="M438.372,396.111a4.19,4.19,0,0,1-1.133.076,9.932,9.932,0,0,0-2.582.324,13.148,13.148,0,0,1-1.3.327,7.821,7.821,0,0,1-1.523.04,30.623,30.623,0,0,1-7.58-.937,4.2,4.2,0,0,1-.248.471,29.545,29.545,0,0,0,7.833,1.013,7.824,7.824,0,0,0,1.523-.04,12.825,12.825,0,0,0,1.291-.326,9.932,9.932,0,0,1,2.577-.328,4.274,4.274,0,0,0,1.133-.077,1.12,1.12,0,0,0,.818-.718.983.983,0,0,0-.012-.515A1.156,1.156,0,0,1,438.372,396.111Z" transform="translate(-424.01 -385.922)"/>
    </g>
    <path id="Path_32728" data-name="Path 32728" d="M450.412,337.6c-.092.206-.478,1.981-.57,2.163s-.592,3.1-.638,3.259a22.351,22.351,0,0,1-3.3-.683l-1.958-1.641-2.012-2a2.558,2.558,0,0,1,1.423-2.386,2.261,2.261,0,0,1,.31-.1c1.8-.432,1.617-5.9,1.617-5.9l3.69,1.594a38.235,38.235,0,0,0-.66,3.8c.006.207.168.336.38.414a3.006,3.006,0,0,0,1.008.109S450.5,337.391,450.412,337.6Z" transform="translate(42.458 262.513)" fill="#fbbebe"/>
    <path id="Path_32729" data-name="Path 32729" d="M529.235,435.6l.524.137s.388.589-.524,1.138a15.787,15.787,0,0,0-1.663,1.163l-2.693.82-.519-1.628,2.506-1.9Z" transform="translate(-29.759 170.496)" fill="#0e70c7"/>
    <path id="Path_32730" data-name="Path 32730" d="M529.235,435.6l.524.137s.388.589-.524,1.138a15.787,15.787,0,0,0-1.663,1.163l-2.693.82-.519-1.628,2.506-1.9Z" transform="translate(-29.871 169.969)" fill="#0e70c7" opacity="0.1"/>
    <path id="Path_32731" data-name="Path 32731" d="M397.587,448.136l-1.047,1.025s1.889,2.187,3.343,2.323,2.391-1.663,2.391-1.663l-1.258-1.981Z" transform="translate(82.235 159.535)" fill="#0e70c7"/>
    <path id="Path_32732" data-name="Path 32732" d="M397.587,448.136l-1.047,1.025s1.889,2.187,3.343,2.323,2.391-1.663,2.391-1.663l-1.258-1.981Z" transform="translate(82.522 159.826)" fill="#0e70c7" opacity="0.1"/>
    <circle id="Ellipse_395" data-name="Ellipse 395" cx="3.644" cy="3.644" r="3.644" transform="translate(486.128 589.108)" opacity="0.1"/>
    <circle id="Ellipse_396" data-name="Ellipse 396" cx="3.644" cy="3.644" r="3.644" transform="translate(486.128 588.834)" fill="#fbbebe"/>
    <path id="Path_32733" data-name="Path 32733" d="M434.692,560.887a11.759,11.759,0,0,0-2.438.546c-1.362.453-12.035.007-12.184,0v-.41l.522-1.3,6.191-.775h2.962s4.457,1.048,4.918,1.5C434.682,560.722,434.692,560.887,434.692,560.887Z" transform="translate(61.618 62.183)" opacity="0.1"/>
    <path id="Path_32734" data-name="Path 32734" d="M450.412,378.723c-.092.206-.478,1.981-.57,2.163s-.592,3.1-.638,3.259a22.351,22.351,0,0,1-3.3-.684l-1.958-1.641-2.012-2a2.558,2.558,0,0,1,1.423-2.386l3.68,4.231,1.657-4.414a3,3,0,0,0,1.008.109S450.5,378.519,450.412,378.723Z" transform="translate(42.458 221.386)" opacity="0.1"/>
    <path id="Path_32735" data-name="Path 32735" d="M421.414,380.46l-3.767-4.334a1.579,1.579,0,0,0-1.495-.11c-.843.365-1.891.661-2.164.843a16.888,16.888,0,0,0-1.3,1.309l3.053,7.988-1.345,5.261s.206,2.688-.318,3.668a4.026,4.026,0,0,0-.433,2.027,7.038,7.038,0,0,1-.022,1.981,3.3,3.3,0,0,0-.024,1.389s10.821.456,12.186,0a11.661,11.661,0,0,1,2.438-.546s-.248-4.557-.5-5.65a31.147,31.147,0,0,1,.206-5.261l-.3-4.465,1.776-4.581s-.962-2.937-1.965-3.233a19.473,19.473,0,0,1-2.209-.638,7.744,7.744,0,0,0-1.527-.388l-.6.2Z" transform="translate(68.084 222.725)" fill="#004a92"/>
    <rect id="Rectangle_4220" data-name="Rectangle 4220" width="8.672" height="13.271" rx="2.94" transform="translate(486.465 606.57) rotate(3.89)" opacity="0.1"/>
    <rect id="Rectangle_4221" data-name="Rectangle 4221" width="8.672" height="13.271" rx="2.94" transform="translate(486.738 606.299) rotate(3.89)" fill="#3f3d56"/>
    <rect id="Rectangle_4222" data-name="Rectangle 4222" width="7.555" height="11.419" transform="translate(487.227 607.331) rotate(3.89)" fill="#fff"/>
    <rect id="Rectangle_4223" data-name="Rectangle 4223" width="6.173" height="1.72" transform="translate(487.932 610.32) rotate(4.004)" opacity="0.1"/>
    <rect id="Rectangle_4224" data-name="Rectangle 4224" width="0.979" height="0.896" transform="translate(492.89 617.505) rotate(3.89)" opacity="0.1"/>
    <rect id="Rectangle_4225" data-name="Rectangle 4225" width="5.013" height="0.896" transform="translate(487.901 615.073) rotate(3.89)" opacity="0.1"/>
    <rect id="Rectangle_4226" data-name="Rectangle 4226" width="5.22" height="1.378" transform="translate(488.624 607.064) rotate(3.89)" fill="#3f3d56"/>
    <rect id="Rectangle_4227" data-name="Rectangle 4227" width="5.22" height="1.378" transform="translate(488.624 607.064) rotate(3.89)" opacity="0.1"/>
    <path id="Path_32736" data-name="Path 32736" d="M473.933,572.56s-.046,6.743-1.823,10.615c0,0,2.142-5.1,2.142-5.307s1.184-2.346.867-2.984S473.933,572.56,473.933,572.56Z" transform="translate(16.022 50.258)" opacity="0.1"/>
    <path id="Path_32737" data-name="Path 32737" d="M456.6,293.04a2.535,2.535,0,0,1,.412-1.7,2.091,2.091,0,0,0,1.617,2.2.274.274,0,0,1-.078-.3,9.172,9.172,0,0,0,.736.88.978.978,0,0,0,1.056.224c.459-.248.464-.9.345-1.408a6.612,6.612,0,0,0-1.522-2.906,2.013,2.013,0,0,0-1.6-.812,3.929,3.929,0,0,0-2.064.323,5.483,5.483,0,0,0-.991.692l-1.733,1.414a1.645,1.645,0,0,0-.421.443,1.214,1.214,0,0,0-.131.464,2.5,2.5,0,0,0,1.166,2.361,1.846,1.846,0,0,1,1.106-1.733.48.48,0,0,1,.172.358l.365-.651a.717.717,0,0,1,.248-.293.647.647,0,0,1,.7.2,1.247,1.247,0,0,0,.636.42l.01-.969" transform="translate(33.451 298.526)" opacity="0.1"/>
    <path id="Path_32738" data-name="Path 32738" d="M456.635,291.939a2.536,2.536,0,0,1,.412-1.7,2.093,2.093,0,0,0,1.618,2.2.271.271,0,0,1-.078-.3,9.327,9.327,0,0,0,.735.88.972.972,0,0,0,1.056.223c.459-.248.464-.9.345-1.407a6.612,6.612,0,0,0-1.522-2.906,2.435,2.435,0,0,0-.851-.661,2.475,2.475,0,0,0-.743-.151,3.928,3.928,0,0,0-2.064.322,5.557,5.557,0,0,0-.991.693l-1.733,1.414a1.627,1.627,0,0,0-.421.443,1.206,1.206,0,0,0-.131.464,2.5,2.5,0,0,0,1.166,2.36,1.849,1.849,0,0,1,1.106-1.733.484.484,0,0,1,.172.358l.364-.649a.709.709,0,0,1,.248-.293.647.647,0,0,1,.7.2,1.255,1.255,0,0,0,.636.42l.01-.971" transform="translate(33.415 299.491)" fill="#3f3d56"/>
    <path id="Path_32739" data-name="Path 32739" d="M423.71,454.853a53.329,53.329,0,0,0-5.581.66,30.125,30.125,0,0,0-2.962-.592,2.656,2.656,0,0,1-2.229-2.392l-.229-4.1.707-.619,3.029,1.981a9.783,9.783,0,0,1,0,1.182,1.666,1.666,0,0,0-.1.371.124.124,0,0,0,.1.111c.206.052,3.006.505,3.006.505s6.492-.445,8.11,1.742a1.644,1.644,0,0,1,.286.54C428.249,455.738,424,455,423.71,454.853Z" transform="translate(68.067 159.561)" fill="#fbbebe"/>
    <path id="Path_32740" data-name="Path 32740" d="M452.887,479.329c-.248.11-.4.189-.4.189a15.091,15.091,0,0,1-3.628-.541,8.521,8.521,0,0,0-2.891-.389s-5.438-.936-4.595-2.158a.124.124,0,0,0,.1.111c.206.052,3.006.505,3.006.505s6.492-.445,8.11,1.742A1.643,1.643,0,0,1,452.887,479.329Z" transform="translate(43.032 134.486)" opacity="0.1"/>
    <path id="Path_32741" data-name="Path 32741" d="M455.174,441.58s.319,2.255.342,2.438a14.589,14.589,0,0,1,0,2.642c-.137.251-.342.66-.342.66s.228.478-.683.661a9.356,9.356,0,0,0-1.981.728,14.847,14.847,0,0,1-3.622-.546,8.357,8.357,0,0,0-2.892-.388s-6.9-1.185-3.941-2.631a4.558,4.558,0,0,1,5.057.513l3.3-.2s1.231-.753,1.573-.683a1.264,1.264,0,0,0,.706-.114l.023-2.392Z" transform="translate(43.003 165.021)" fill="#fbbebe"/>
    <path id="Path_32742" data-name="Path 32742" d="M399.145,396.635l-.661-.035-2,7.8s2.163-.547,3.1,0a7.511,7.511,0,0,0,2.642.66l-.638-6.218Z" transform="translate(82.287 204.431)" opacity="0.1"/>
    <path id="Path_32743" data-name="Path 32743" d="M399.145,395.525l-.661-.035-2,7.8s2.163-.547,3.1,0a7.512,7.512,0,0,0,2.642.66l-.638-6.218Z" transform="translate(82.287 205.404)" fill="#004a92"/>
    <path id="Path_32744" data-name="Path 32744" d="M530.033,409.57l.91.206s2.324,3.343,2.506,3.53-.867.867-1.3.867-2.551.248-3.166.82-.359-2.307-.359-2.372.764-1.882.764-1.882Z" transform="translate(-33.45 193.067)" opacity="0.1"/>
    <path id="Path_32745" data-name="Path 32745" d="M530.033,408.47l.91.2s2.324,3.349,2.506,3.531-.867.867-1.3.867-2.551.248-3.166.82-.359-2.307-.359-2.372.769-1.888.769-1.888Z" transform="translate(-33.45 194.03)" fill="#004a92"/>
    <g id="Group_7989" data-name="Group 7989" transform="translate(485.673 589.458)" opacity="0.1">
      <path id="Path_32746" data-name="Path 32746" d="M457.04,303.415a1.822,1.822,0,0,1,.006-.285,2.534,2.534,0,0,0-.381.935v.345c0,.2,0,.4-.006.6h-.017v.093a.493.493,0,0,0-.006-.1,1.318,1.318,0,0,1-.609-.414c-.185-.166-.473-.324-.7-.2a.71.71,0,0,0-.248.293l-.368.649a.479.479,0,0,0-.172-.357,1.846,1.846,0,0,0-1.106,1.733,2.516,2.516,0,0,1-1.175-1.972,2.5,2.5,0,0,0,1.175,2.245,1.849,1.849,0,0,1,1.106-1.733.484.484,0,0,1,.172.358l.364-.649a.709.709,0,0,1,.248-.293.647.647,0,0,1,.7.2,1.255,1.255,0,0,0,.636.42q0-.475.01-.948a2.522,2.522,0,0,1,.371-.927Z" transform="translate(-452.256 -303.13)"/>
      <path id="Path_32747" data-name="Path 32747" d="M487.491,311.329c.006-.084.016-.168.028-.248l.014-.342A2.5,2.5,0,0,0,487.491,311.329Z" transform="translate(-483.125 -309.798)"/>
      <path id="Path_32748" data-name="Path 32748" d="M505.056,319.623A.975.975,0,0,1,504,319.4a9.173,9.173,0,0,1-.735-.88.274.274,0,0,0,.078.3.29.29,0,0,1-.072-.019,8.187,8.187,0,0,0,.729.867.983.983,0,0,0,1.056.223,1.012,1.012,0,0,0,.4-1.017A.86.86,0,0,1,505.056,319.623Z" transform="translate(-496.935 -316.614)"/>
      <path id="Path_32749" data-name="Path 32749" d="M492.42,307.75a2.1,2.1,0,0,1-1.543-1.84,2.091,2.091,0,0,0,1.622,2.133A.272.272,0,0,1,492.42,307.75Z" transform="translate(-486.091 -305.566)"/>
    </g>
    <path id="Path_32750" data-name="Path 32750" d="M796.887,291.4s-.488-.068-.488-.778a11.159,11.159,0,0,0-.349-2.038h0s-.3-2.312-.719-2.678a9.158,9.158,0,0,1-.953-2.518,5.076,5.076,0,0,0-.279-1.419,12.071,12.071,0,0,1-.812-1.745c-.373-.878-1.923-1.48-1.923-1.48s-2.81-1.629-3.606-2.161h0a1.233,1.233,0,0,1-.2-.154c-.139-.181-.743-.185-.743-.185a12.237,12.237,0,0,1-.144-1.273v-.134a4.285,4.285,0,0,0,1.883-2.33c.015-.047.027-.1.041-.144a.4.4,0,0,0,.248-.218,4.36,4.36,0,0,1,.162-.5,1.835,1.835,0,0,1,.458-.4,1.736,1.736,0,0,0,.477-1.41c-.012-.416-.079-.835-.053-1.247a.489.489,0,0,1,.007-.1c.007-.061.016-.124.027-.183.061-.307.193-.6.267-.9a1.159,1.159,0,0,0-.092-.91,1.557,1.557,0,0,0-1.247-.5c-.526-.045-.991.012-1.333-.425a4.674,4.674,0,0,0-.53-.639c-.069-.064-.743-.477-.743-.5a3.01,3.01,0,0,0-2.1-.162c-.35.1-.679.267-1.034.35-.763.181-1.642-.015-2.291.422a2.7,2.7,0,0,0-.781,1.025q-.248.473-.5.947a6.1,6.1,0,0,0-.667,1.621,2.753,2.753,0,0,0-.046.38h0v.2a.678.678,0,0,0,.007.124.7.7,0,0,0,.009.077c.009.026.011.084.019.124s.022.11.037.163a.252.252,0,0,0,.022.069c.007.024.027.083.043.124s.017.043.027.064a1.156,1.156,0,0,0,.063.124c.01.016.017.032.027.048a1.4,1.4,0,0,0,.114.166c.264.331.655.541.943.851v.139a4.239,4.239,0,0,0,1.941,3.455c0,.047.006.1.009.144a7.082,7.082,0,0,1-.014,1.1.523.523,0,0,0-.411-.183.59.59,0,0,0-.158.014l-.011-.009h0v.011c-.272.067-.608.35-.929,1.156,0,0-.976,1.1-1.719,1.054a7.879,7.879,0,0,0-2.624,1.145,6.323,6.323,0,0,0-2.229,2.4,16.815,16.815,0,0,1-.791,2.016l-2.275,4.67h0l-.417,3.715a17.171,17.171,0,0,1,.186,1.9,18.244,18.244,0,0,0,.952,2.518s3.3,5.792,4.645,6.089l.1-.067a.843.843,0,0,0,.182.067l.277-.194a2.9,2.9,0,0,1-.022.653,17.269,17.269,0,0,0,.4,5.037c.324.732.209,10.328.209,10.328l-.046.846a.358.358,0,0,0,.011.074l-.011.2.033.017a2.394,2.394,0,0,1-.033.807,8.944,8.944,0,0,0-.163,1.42s-.929,5.928-.488,7.12.813,2.5.813,2.5.464,1.486.022,1.733-1.694.687-1.439,1.305c.235.572,1.128,2.1,1.26,2.329l-.011.124-.182,1.972a2.477,2.477,0,0,0,.209.753,1.3,1.3,0,0,0,1.324.827c.124-.009.266-.022.406-.041a17.593,17.593,0,0,0,3.008-.784,1.184,1.184,0,0,1-.234-.194h0a.68.68,0,0,1-.207-.5,14.417,14.417,0,0,0-.821-2.492l-.038-.094s1.533-1.6,1.278-3.022c0,0-1.7-.991-1.138-1.535a17.4,17.4,0,0,0,1.556-2.1s.046-5.838,0-6.709a7.226,7.226,0,0,1,.085-1.813c.019-.089.041-.177.064-.265a15.823,15.823,0,0,0,2.335.177q.428,0,.867-.017,0,.124.011.267c.064,1.446.184,3.983.282,4.926.139,1.35.905,4.991.905,4.991s-1.462.937.255,3.251a3.139,3.139,0,0,1-.114.96h0a10.484,10.484,0,0,0-.293,1.21,2.125,2.125,0,0,0,.015,1.1c.279.547,1.95.5,1.95.5h0a.26.26,0,0,1,.041-.006,2.386,2.386,0,0,1,1.769.532c.635.51,3.045.287,4.351.124.511-.066.853-.124.853-.124a.5.5,0,0,0,.017-.178h0c-.014-.321-.265-1.024-1.969-1.652,0,0-1.6-1.077-1.58-2.016h-.22c.116,0,.2,0,.2,0s-.628-2.289-.371-2.476-.511-2.724-.511-2.724-.44-4.259-.464-4.557a2.619,2.619,0,0,1,.116-.755l-.116-2.336s-.022-.776,0-1.029a4.832,4.832,0,0,0-.052-.655c-.011-.087-.022-.177-.035-.266.6-.152.991-.292.991-.292l-.069-8.129a13.006,13.006,0,0,0,.6-4.705c0-.991-.045-1.724-.045-1.724l.7-1.138s.161-1.362-.094-1.66a.286.286,0,0,1,.031-.39,1.293,1.293,0,0,1,.155-.109.186.186,0,0,1-.016-.027,1.237,1.237,0,0,1,.155-.11s-.248-.384-.026-.546c.208.141.394.254.535.334-.01.09-.02.142-.02.142l.059-.124.219.124a16.588,16.588,0,0,0,1.069-2.495,7.3,7.3,0,0,1,.743-1.672,1.674,1.674,0,0,1,.511-1.008c.419-.3.324-2.45.324-2.45a5.266,5.266,0,0,1,.395-1.579C797.414,292.023,796.887,291.4,796.887,291.4Zm-20.9-.955.021.519-.213-.342Z" transform="translate(-245.422 320.478)" fill="url(#linear-gradient-2)"/>
    <path id="Path_32751" data-name="Path 32751" d="M941.185,536.589l-.267,1.139s-2.142-1.1-2.527-2.483a1.573,1.573,0,0,1,.645-1.915l2,.844Z" transform="translate(-392.448 84.631)" fill="#fff"/>
    <path id="Path_32752" data-name="Path 32752" d="M941.185,536.589l-.267,1.139s-2.142-1.1-2.527-2.483a1.573,1.573,0,0,1,.645-1.915l2,.844Z" transform="translate(-392.448 84.631)" opacity="0.1"/>
    <path id="Path_32753" data-name="Path 32753" d="M830.177,840.885a15.394,15.394,0,0,1-3.343.82,1.272,1.272,0,0,1-1.3-.822,2.513,2.513,0,0,1-.206-.743l.18-1.963.094-1.044,2.894-.753.41,1.254.038.094a14.649,14.649,0,0,1,.8,2.476.68.68,0,0,0,.2.5A1.15,1.15,0,0,0,830.177,840.885Z" transform="translate(-293.463 -180.896)" fill="#fff"/>
    <path id="Path_32754" data-name="Path 32754" d="M910.823,838.923a.5.5,0,0,1-.017.178s-4.237.706-5.1,0a2.3,2.3,0,0,0-1.778-.524s-1.639.045-1.913-.5a2.145,2.145,0,0,1-.014-1.1,10.55,10.55,0,0,1,.287-1.2l.066-.052.39-.313,4.566-.135h.035c-.022.934,1.549,2,1.549,2C910.563,837.9,910.81,838.6,910.823,838.923Z" transform="translate(-360.583 -179.932)" fill="#fff"/>
    <path id="Path_32755" data-name="Path 32755" d="M910.819,850.97a.51.51,0,0,1-.019.178s-4.237.706-5.1,0a2.294,2.294,0,0,0-1.779-.524s-1.641.045-1.914-.5a2.162,2.162,0,0,1-.014-1.1,4.071,4.071,0,0,1,2.019.6,4.505,4.505,0,0,0,2.209,1.185C906.7,850.841,909.591,850.933,910.819,850.97Z" transform="translate(-360.578 -191.98)" opacity="0.1"/>
    <path id="Path_32756" data-name="Path 32756" d="M831.632,871.419a15.392,15.392,0,0,1-3.343.82,1.272,1.272,0,0,1-1.3-.822,2.706,2.706,0,0,0,1.572.184,13.93,13.93,0,0,1,2.848-.371,1.123,1.123,0,0,0,.222.189Z" transform="translate(-294.917 -211.431)" opacity="0.1"/>
    <path id="Path_32757" data-name="Path 32757" d="M864.911,346.29c-1.634-.635-3.737-2.734-3.212-3.715a2.222,2.222,0,0,0,.2-.788,7.18,7.18,0,0,0,.015-1.114,15.3,15.3,0,0,0-.219-1.814s5.1.115,4.805.867a2.788,2.788,0,0,0-.077,1.031c.025.427.085.914.15,1.324.088.561.178.991.178.991s-.313.437-.5.461S867.256,347.2,864.911,346.29Z" transform="translate(-325.257 255.022)" fill="#cf6f80"/>
    <path id="Path_32758" data-name="Path 32758" d="M830.176,837.678l-.038.042c-1.525-1.845-3.37.456-3.37.456l-.027-.05.094-1.044,2.894-.753.41,1.254Z" transform="translate(-294.698 -180.852)" opacity="0.1"/>
    <path id="Path_32759" data-name="Path 32759" d="M909.844,835.375a2.935,2.935,0,0,0-1.709.5c-.594.525-3.467.113-3.343,0a.427.427,0,0,0,.064-.19l.39-.313,4.566-.135C909.831,835.327,909.844,835.375,909.844,835.375Z" transform="translate(-363.083 -179.897)" opacity="0.1"/>
    <path id="Path_32760" data-name="Path 32760" d="M823.147,702.015a3.48,3.48,0,0,0-.188.635,7.269,7.269,0,0,0-.085,1.8c.046.867,0,6.675,0,6.675a17.687,17.687,0,0,1-1.527,2.1c-.547.546,1.114,1.527,1.114,1.527.248,1.413-1.253,3.008-1.253,3.008-1.526-1.845-3.37.454-3.37.454s-1-1.733-1.253-2.353.979-1.046,1.412-1.3-.022-1.733-.022-1.733-.364-1.3-.8-2.484.478-7.082.478-7.082a9.16,9.16,0,0,1,.16-1.414,2.4,2.4,0,0,0,.034-.8c-.007-.09-.016-.165-.022-.217s-.011-.074-.011-.074l.017-.03.619-1.154S823.444,701.289,823.147,702.015Z" transform="translate(-285.771 -61.025)" fill="#004a92"/>
    <path id="Path_32761" data-name="Path 32761" d="M900.374,724.98a2.956,2.956,0,0,0-1.709.5c-.594.519-3.467.114-3.343,0s.113-.956.113-.956c-1.685-2.3-.248-3.235-.248-3.235s-.752-3.622-.888-4.965c-.1-.937-.213-3.467-.276-4.9-.027-.619-.043-1.046-.043-1.046l1.364-.271.177-.035,3.321-.667s.092.619.154,1.125a4.948,4.948,0,0,1,.051.653c-.021.248,0,1.024,0,1.024l.114,2.323a2.677,2.677,0,0,0-.114.752c.023.3.456,4.533.456,4.533s.752,2.528.5,2.71S900.374,724.98,900.374,724.98Z" transform="translate(-353.613 -69.638)" fill="#004a92"/>
    <path id="Path_32762" data-name="Path 32762" d="M867.086,339.757a2.788,2.788,0,0,0-.077,1.031,4.241,4.241,0,0,1-4.509-.084,15.315,15.315,0,0,0-.219-1.814S867.383,339.005,867.086,339.757Z" transform="translate(-325.838 254.995)" opacity="0.1"/>
    <path id="Path_32763" data-name="Path 32763" d="M857.052,293.827a4.236,4.236,0,1,1-8.472.1c0-.035,0-.067,0-.1a4.237,4.237,0,1,1,8.474,0Z" transform="translate(-313.834 298.191)" fill="#cf6f80"/>
    <path id="Path_32764" data-name="Path 32764" d="M864.911,367.012c-1.634-.635-3.737-2.734-3.212-3.715a2.222,2.222,0,0,0,.2-.787l2.237,1.84,1.384,1.135,1.052-2.678c.088.561.178.991.178.991s-.313.437-.5.461S867.256,367.922,864.911,367.012Z" transform="translate(-325.257 234.3)" opacity="0.1"/>
    <path id="Path_32765" data-name="Path 32765" d="M843.876,355.225l-1.868,31.388-2.437.16-6.311-18.2,1.035-21.608.219-4.565,2.806,2.3,1.384,1.135,1.083-2.757,2.015,1.756Z" transform="translate(-298.436 254.218)" fill="#6881c4"/>
    <path id="Path_32766" data-name="Path 32766" d="M832.065,702.085a3.48,3.48,0,0,0-.188.635,17.958,17.958,0,0,1-5.114-1.6l-.033-.017.011-.2v-.1l.619-1.154S832.362,701.359,832.065,702.085Z" transform="translate(-294.69 -61.095)" opacity="0.1"/>
    <path id="Path_32767" data-name="Path 32767" d="M895.333,716.236a12.535,12.535,0,0,1-1.369.157c-.027-.619-.043-1.046-.043-1.046l1.372-.277Z" transform="translate(-353.56 -74.607)" opacity="0.1"/>
    <path id="Path_32768" data-name="Path 32768" d="M909.944,710.525a9.611,9.611,0,0,1-3.457.326l-.017-.784,3.321-.667S909.879,710.014,909.944,710.525Z" transform="translate(-364.556 -69.638)" opacity="0.1"/>
    <path id="Path_32769" data-name="Path 32769" d="M792.8,405.634a16.98,16.98,0,0,1-9.726-1.618l.045-.842s.115-9.545-.2-10.277a17.352,17.352,0,0,1-.388-5c.181-.566-.66-9.109-.66-9.109l-.136-3.467-4.989-2.027,2.229-4.647a16.786,16.786,0,0,0,.775-2.006,6.269,6.269,0,0,1,2.187-2.392,7.7,7.7,0,0,1,2.574-1.139c.729.045,1.685-1.048,1.685-1.048.706-1.8,1.345-.991,1.345-.991a1.592,1.592,0,0,1-.035.266c-.248,1.975,4,8.215,4.065,8.327h0l.41,9.863.41,12.482Z" transform="translate(-250.889 235.722)" opacity="0.1"/>
    <path id="Path_32770" data-name="Path 32770" d="M791.672,405.634a16.986,16.986,0,0,1-9.727-1.618l.046-.842s.114-9.545-.206-10.277a17.352,17.352,0,0,1-.386-5.012c.182-.571-.664-9.106-.664-9.106l-.137-3.467-4.987-2.027,2.229-4.647a17.055,17.055,0,0,0,.775-2,6.284,6.284,0,0,1,2.193-2.39,7.7,7.7,0,0,1,2.573-1.139c.728.045,1.689-1.046,1.689-1.046.707-1.8,1.486-.991,1.486-.991,0,.087-.074.124-.035.266a83.281,83.281,0,0,0,3.929,8.327h0l.41,9.863.4,12.488Z" transform="translate(-249.899 235.722)" fill="#fff"/>
    <path id="Path_32771" data-name="Path 32771" d="M861.187,371.94a34.673,34.673,0,0,1-3.438-3.53v-.752c-.105-.248-.732-.1-1.238.077l.218-4.565.248.206C857.517,365.29,861.127,371.83,861.187,371.94Z" transform="translate(-320.782 233.722)" opacity="0.1"/>
    <path id="Path_32772" data-name="Path 32772" d="M862.288,369.766a34.688,34.688,0,0,1-3.44-3.53v-.753c-.105-.248-.731-.1-1.238.077l.214-4.56.248.2C858.618,363.116,862.227,369.655,862.288,369.766Z" transform="translate(-321.746 235.624)" fill="#fff"/>
    <path id="Path_32773" data-name="Path 32773" d="M825.909,562.224c.068,0,3.53-.364,3.53-.364s2.1,4.123,1.959,5.125-.386,1.891-1.23,1.733a37.429,37.429,0,0,0-4.538.124Z" transform="translate(-293.726 59.633)" opacity="0.1"/>
    <path id="Path_32774" data-name="Path 32774" d="M824.8,560.014c.069,0,3.531-.364,3.531-.364s2.1,4.129,1.959,5.12-.388,1.891-1.23,1.734a37.461,37.461,0,0,0-4.539.124Z" transform="translate(-292.753 61.57)" fill="#fff"/>
    <path id="Path_32775" data-name="Path 32775" d="M834.443,547s3.177,1.709,3.245,2.229-1.617-.228-1.981-.319a4.721,4.721,0,0,0-.729-.114l-2.428.066Z" transform="translate(-299.789 72.653)" fill="#cf6f80"/>
    <circle id="Ellipse_397" data-name="Ellipse 397" cx="0.334" cy="0.334" r="0.334" transform="translate(539.182 605.206)" opacity="0.1"/>
    <circle id="Ellipse_398" data-name="Ellipse 398" cx="0.334" cy="0.334" r="0.334" transform="translate(539.182 605.07)" fill="#3f3d56"/>
    <circle id="Ellipse_399" data-name="Ellipse 399" cx="0.334" cy="0.334" r="0.334" transform="translate(539.798 619.678)" opacity="0.1"/>
    <circle id="Ellipse_400" data-name="Ellipse 400" cx="0.334" cy="0.334" r="0.334" transform="translate(539.798 619.541)" fill="#3f3d56"/>
    <circle id="Ellipse_401" data-name="Ellipse 401" cx="0.334" cy="0.334" r="0.334" transform="translate(539.517 612.442)" opacity="0.1"/>
    <circle id="Ellipse_402" data-name="Ellipse 402" cx="0.334" cy="0.334" r="0.334" transform="translate(539.517 612.306)" fill="#3f3d56"/>
    <path id="Path_32776" data-name="Path 32776" d="M907.89,389.078s.228.342,0,.5.022.547.022.547-.568.332-.318.633.092,1.652.092,1.652L907,393.543s.041.729.043,1.715a13.179,13.179,0,0,1-.591,4.685l.067,8.087a10.983,10.983,0,0,1-4.4.608l-.3-12.976s.433-7.359.593-8.77a14.69,14.69,0,0,0,.114-2.21,24.663,24.663,0,0,0-.3-3.233s-.248-4.443-.272-5.672c-.011-.588.02-2.3.054-3.936.038-1.784.082-3.467.082-3.467l-.452-3.577s.452-.045.588.136a1.309,1.309,0,0,0,.2.152h0c.781.527,3.538,2.149,3.538,2.149s1.525.607,1.891,1.476a12.862,12.862,0,0,0,.8,1.733,5.35,5.35,0,0,1,.274,1.412,9.146,9.146,0,0,0,.935,2.5c.41.363.7,2.666.7,2.666l-3.622,2.848s-.318,4.737-.386,4.921S907.89,389.078,907.89,389.078Z" transform="translate(-360.333 232.302)" fill="#fff"/>
    <path id="Path_32777" data-name="Path 32777" d="M908,388.77s.227.342,0,.5.021.547.021.547-.568.332-.318.633.092,1.652.092,1.652l-.681,1.138s.041.729.045,1.715a13.177,13.177,0,0,1-.591,4.685l.068,8.087a10.982,10.982,0,0,1-4.4.608l-.3-12.976s.432-7.359.593-8.77a14.562,14.562,0,0,0,.113-2.21,24.826,24.826,0,0,0-.3-3.233s-.248-4.443-.274-5.672c-.011-.588.02-2.3.054-3.936.038-1.784.082-3.467.082-3.467l-.6-3.625s.6,0,.734.184a1.174,1.174,0,0,0,.2.152h0c.78.527,3.536,2.149,3.536,2.149s1.522.607,1.893,1.476a13.729,13.729,0,0,0,.8,1.733,5.353,5.353,0,0,1,.274,1.412,9.145,9.145,0,0,0,.935,2.5c.41.363.706,2.666.706,2.666l-3.622,2.848s-.318,4.737-.388,4.921S908,388.77,908,388.77Z" transform="translate(-360.306 232.609)" fill="#fff"/>
    <path id="Path_32778" data-name="Path 32778" d="M904.619,371.044l.328.953-1.722,1.733c.038-1.784.082-3.467.082-3.467l-.6-3.624s.6,0,.734.184a1.173,1.173,0,0,0,.2.152h0l1.464,4.221Z" transform="translate(-361.262 230.681)" opacity="0.1"/>
    <path id="Path_32779" data-name="Path 32779" d="M903.489,368.817l.328.952L902.1,371.5c.037-1.784.082-3.467.082-3.467l-.6-3.625s.6,0,.734.184a1.237,1.237,0,0,0,.2.152h0l1.472,4.225Z" transform="translate(-360.272 232.636)" fill="#fff"/>
    <path id="Path_32780" data-name="Path 32780" d="M857.052,293.827a4.221,4.221,0,0,1-.208,1.314.176.176,0,0,1-.134-.032,5.478,5.478,0,0,0-1.256-3.052,3.232,3.232,0,0,0-.681-.706,1.334,1.334,0,0,0-.924-.261c-.371.051-.7.3-1.075.336-.5.041-.939-.3-1.43-.318a1.4,1.4,0,0,0-1.051.488,2.869,2.869,0,0,0-.563,1.044,6.113,6.113,0,0,0-.314,1.8c-.006.347-.04.781-.362.908a1.845,1.845,0,0,0-.467-1.412l-.007-.009v-.1a4.237,4.237,0,1,1,8.474,0Z" transform="translate(-313.834 298.191)" opacity="0.1"/>
    <path id="Path_32781" data-name="Path 32781" d="M845.453,267.517a2.917,2.917,0,0,0-2.058-.161c-.343.1-.666.266-1.014.349-.743.18-1.61-.015-2.247.42a2.684,2.684,0,0,0-.765,1.02l-.5.942a6.119,6.119,0,0,0-.655,1.61,2.059,2.059,0,0,0,.316,1.663c.261.332.65.541.935.854a1.857,1.857,0,0,1,.466,1.415c.322-.124.354-.561.362-.908a6.126,6.126,0,0,1,.314-1.8,2.868,2.868,0,0,1,.563-1.044,1.4,1.4,0,0,1,1.051-.489c.5.017.94.36,1.43.318.371-.031.7-.284,1.075-.334a1.327,1.327,0,0,1,.924.261,3.174,3.174,0,0,1,.68.706,5.456,5.456,0,0,1,1.257,3.052c.14.1.342-.032.411-.191a4.56,4.56,0,0,1,.16-.5,1.831,1.831,0,0,1,.448-.4,1.752,1.752,0,0,0,.468-1.4,6.988,6.988,0,0,1-.017-1.525c.058-.306.189-.594.261-.9a1.173,1.173,0,0,0-.089-.905,1.528,1.528,0,0,0-1.223-.5c-.516-.045-.978.012-1.308-.422a4.843,4.843,0,0,0-.52-.636C846.113,267.952,845.453,267.544,845.453,267.517Z" transform="translate(-304.712 317.774)" fill="#512e4e"/>
    <path id="Path_32782" data-name="Path 32782" d="M776.232,463.441l-1.293-2.391-.41,3.69a17.117,17.117,0,0,1,.182,1.891,18.173,18.173,0,0,0,.934,2.5s3.235,5.764,4.557,6.06l4.458-3.19-1.184-1.5s-.41-.16-.513,0c0,0-2.2-3.781-2.426-4.054a1.378,1.378,0,0,1-.183-.821s-.342-.364-.228-.706-.654-1.525-.654-1.525l.706-.66Z" transform="translate(-248.953 147.961)" opacity="0.1"/>
    <path id="Path_32783" data-name="Path 32783" d="M773.072,458.84l-.342.274-.41,3.69a17.1,17.1,0,0,1,.182,1.891,18.168,18.168,0,0,0,.935,2.5s3.234,5.764,4.555,6.06l4.465-3.19-1.185-1.5s-.41-.16-.513,0c0,0-2.2-3.781-2.426-4.054a1.364,1.364,0,0,1-.182-.821s-.342-.364-.228-.706-.661-1.525-.661-1.525l.706-.66Z" transform="translate(-247.017 149.898)" fill="#fff"/>
    <path id="Path_32784" data-name="Path 32784" d="M931.372,560.024c.248.3.092,1.653.092,1.653l-.684,1.13s.041.731.043,1.716l-1.149.359a.683.683,0,0,1-.886-.674l.2-6.389,2.681,1.024c-.228.159.022.547.022.547S931.122,559.723,931.372,560.024Z" transform="translate(-384.11 63.174)" opacity="0.1"/>
    <path id="Path_32785" data-name="Path 32785" d="M932.489,558.915c.248.3.092,1.652.092,1.652L931.9,561.7s.041.729.045,1.715l-1.17.365a.667.667,0,0,1-.867-.658l.2-6.411,2.679,1.026c-.229.158.021.547.021.547S932.239,558.614,932.489,558.915Z" transform="translate(-385.092 64.146)" fill="#fff"/>
    <path id="Path_32786" data-name="Path 32786" d="M942.761,542.845s-.182,1.163-.638,1.231-.66,1.881-1.114,1.818-.153-1.686-.137-2-.5-1.617-.114-1.913,1.595,0,1.595,0Z" transform="translate(-394.474 77.168)" fill="#cf6f80"/>
    <path id="Path_32787" data-name="Path 32787" d="M940.35,465.333l.858-1.733a11.22,11.22,0,0,1,.343,2.027c0,.706.478.775.478.775s.524.619.248,1.071a5.182,5.182,0,0,0-.386,1.571s.09,2.141-.319,2.437a1.682,1.682,0,0,0-.5,1,7.271,7.271,0,0,0-.728,1.663,16.512,16.512,0,0,1-1.047,2.483,3.511,3.511,0,0,0-2.528-3.85s-.024-.911.2-1.161.583-.372.36-1.63a14.767,14.767,0,0,1-.064-3.078,19.356,19.356,0,0,1,.683-2.194Z" transform="translate(-391.1 145.727)" opacity="0.1"/>
    <path id="Path_32788" data-name="Path 32788" d="M942.7,461.6l.75.248a11.216,11.216,0,0,1,.343,2.027c0,.706.478.775.478.775s.524.619.248,1.071a5.2,5.2,0,0,0-.388,1.571s.092,2.141-.318,2.437a1.658,1.658,0,0,0-.5,1,7.266,7.266,0,0,0-.728,1.663,16.5,16.5,0,0,1-1.049,2.483,3.511,3.511,0,0,0-2.528-3.85s-.022-.911.206-1.161.583-.371.36-1.629a14.765,14.765,0,0,1-.064-3.078,19.356,19.356,0,0,1,.683-2.194Z" transform="translate(-393.072 147.48)" fill="#fff"/>
    <path id="Path_32789" data-name="Path 32789" d="M834.92,821.608s1.2-.752,1.981-.206S834.92,821.608,834.92,821.608Z" transform="translate(-301.865 -167.599)" opacity="0.1"/>
    <path id="Path_32790" data-name="Path 32790" d="M910,805.653a2.421,2.421,0,0,1,1.948.821C912.837,807.431,910,805.653,910,805.653Z" transform="translate(-367.649 -153.967)" opacity="0.1"/>
    <g id="Group_7990" data-name="Group 7990" transform="translate(533.455 587.741)" opacity="0.1">
      <path id="Path_32791" data-name="Path 32791" d="M861.122,301.293c-.152.132-.348.225-.449.4a4.6,4.6,0,0,0-.159.5c-.069.16-.271.292-.412.191a5.473,5.473,0,0,0-1.255-3.052,3.166,3.166,0,0,0-.68-.7,1.331,1.331,0,0,0-.925-.262c-.371.051-.7.3-1.073.336-.5.041-.94-.3-1.431-.318a1.4,1.4,0,0,0-1.05.488,2.867,2.867,0,0,0-.563,1.044,6.124,6.124,0,0,0-.314,1.8c-.007.345-.04.776-.359.905a1.7,1.7,0,0,1,0,.276c.323-.124.355-.561.363-.908a6.119,6.119,0,0,1,.314-1.8,2.868,2.868,0,0,1,.563-1.044,1.4,1.4,0,0,1,1.05-.489c.5.017.941.36,1.431.318.371-.031.7-.284,1.074-.334a1.331,1.331,0,0,1,.925.261,3.174,3.174,0,0,1,.68.706,5.463,5.463,0,0,1,1.255,3.052c.141.1.343-.032.412-.191a4.787,4.787,0,0,1,.159-.5,1.836,1.836,0,0,1,.449-.4,1.753,1.753,0,0,0,.468-1.4v-.047A1.628,1.628,0,0,1,861.122,301.293Z" transform="translate(-850.68 -297.228)"/>
      <path id="Path_32792" data-name="Path 32792" d="M839.456,308.168c-.283-.313-.672-.524-.934-.856a1.8,1.8,0,0,1-.36-1.013,1.908,1.908,0,0,0,.36,1.286c.261.332.65.541.934.854a1.857,1.857,0,0,1,.468,1.1A1.857,1.857,0,0,0,839.456,308.168Z" transform="translate(-838.155 -304.19)"/>
      <path id="Path_32793" data-name="Path 32793" d="M926.087,289.5c-.073.3-.2.592-.262.9a2.865,2.865,0,0,0-.038.627,2.4,2.4,0,0,1,.038-.353c.059-.306.189-.594.262-.9a1.552,1.552,0,0,0,.041-.513A1.7,1.7,0,0,1,926.087,289.5Z" transform="translate(-914.933 -289.26)"/>
    </g>
    <ellipse id="Ellipse_403" data-name="Ellipse 403" cx="12.065" cy="1.938" rx="12.065" ry="1.938" transform="translate(436.02 654.216)" fill="#0e70c7" opacity="0.1"/>
    <rect id="Rectangle_4228" data-name="Rectangle 4228" width="0.776" height="17.48" transform="translate(447.697 619.031)" fill="#535461"/>
    <path id="Path_32794" data-name="Path 32794" d="M116.663,674.336l-.05.787-.068,1.114-.028.463-.069,1.114-.03.463-.068,1.114-.784,12.638a2.14,2.14,0,0,1-2.136,2.008h-4.07a2.138,2.138,0,0,1-2.136-2.017l-.784-12.638-.068-1.114-.028-.463-.071-1.114-.028-.463-.068-1.114-.05-.788a1.114,1.114,0,0,1,1.107-1.177h8.323a1.114,1.114,0,0,1,1.106,1.186Z" transform="translate(336.69 -37.876)" fill="#3f3d56"/>
    <path id="Path_32795" data-name="Path 32795" d="M101.018,670.52l-.069,1.112h-10.3l-.069-1.112Z" transform="translate(352.286 -33.274)" fill="#9d9cb5"/>
    <path id="Path_32796" data-name="Path 32796" d="M101.612,683.24l-.068,1.112h-10.1l-.069-1.112Z" transform="translate(351.594 -44.419)" fill="#9d9cb5"/>
    <path id="Path_32797" data-name="Path 32797" d="M102.207,695.97l-.068,1.111H92.229l-.069-1.111Z" transform="translate(350.902 -55.573)" fill="#9d9cb5"/>
    <path id="Path_32798" data-name="Path 32798" d="M26.415,570.455a20.154,20.154,0,0,1,6.405,8.387,20.152,20.152,0,0,1-9.971-3.458A20.169,20.169,0,0,1,16.44,567,20.144,20.144,0,0,1,26.415,570.455Z" transform="translate(415.271 55.13)" fill="#6881c4"/>
    <path id="Path_32799" data-name="Path 32799" d="M16.44,567s5.655,3.139,7.469,5.738,8.906,6.107,8.906,6.107" transform="translate(415.271 55.13)" fill="none" stroke="#535461" stroke-width="2"/>
    <path id="Path_32800" data-name="Path 32800" d="M82.127,528.362a10.962,10.962,0,0,1,3.487,4.564A9.961,9.961,0,0,1,76.7,526.48,10.962,10.962,0,0,1,82.127,528.362Z" transform="translate(362.472 90.633)" fill="#6881c4"/>
    <path id="Path_32801" data-name="Path 32801" d="M76.7,526.48s3.078,1.709,4.066,3.123,4.848,3.323,4.848,3.323" transform="translate(362.472 90.633)" fill="none" stroke="#535461" stroke-width="2"/>
    <path id="Path_32802" data-name="Path 32802" d="M153.335,548.486a15.164,15.164,0,0,0-3.425,7.167A13.782,13.782,0,0,0,160.145,544.4,15.176,15.176,0,0,0,153.335,548.486Z" transform="translate(298.327 74.932)" fill="#004a92"/>
    <path id="Path_32803" data-name="Path 32803" d="M160.147,544.41s-3.682,3.185-4.618,5.379-5.619,5.873-5.619,5.873" transform="translate(298.327 74.923)" fill="none" stroke="#535461" stroke-width="2"/>
  </g>
</svg>
