<svg id="Component_104_1" data-name="Component 104 – 1" xmlns="http://www.w3.org/2000/svg" width="152" height="112" viewBox="0 0 152 112">
  <rect id="Rectangle_4381" data-name="Rectangle 4381" width="152" height="112" fill="none"/>
  <g id="Group_8013" data-name="Group 8013" transform="translate(174.508 -9907.768)">
    <path id="Path_32557" data-name="Path 32557" d="M203.517,129.695c-2.451,5.057-6.7,8.926-11.55,11.87a51.056,51.056,0,0,1-6.2,3.173q-2.1.907-4.249,1.656a67.523,67.523,0,0,1-22.2,3.705q-1.85,0-3.7-.095-.531-.027-1.062-.062-2.8-.185-5.575-.595l-.111-.017a70.228,70.228,0,0,1-11.419-2.676q-1.083-.351-2.153-.738c-.193-.068-.385-.139-.576-.209q-1.206-.447-2.394-.938-1-.412-1.987-.855-.972-.439-1.931-.907-1.569-.769-3.1-1.612-1.185-.656-2.338-1.361a64.606,64.606,0,0,1-5.528-3.783q-.941-.718-1.855-1.473c-.423-.349-.842-.705-1.267-1.051a15.991,15.991,0,0,0-2.852-1.942,10.234,10.234,0,0,0-.955-.422,11.957,11.957,0,0,0-3.793-.738,21.5,21.5,0,0,0-6.63.933c-1.016.288-2.02.618-3.025.956l-1.236.419c-.851.29-1.7.574-2.56.833-.286.086-.572.17-.86.25a25.268,25.268,0,0,1-3.5.744,18.653,18.653,0,0,1-7.87-.686l-.217-.068c-.364-.114-.725-.239-1.084-.376l-.217-.083q-.519-.2-1.019-.431l-.217-.1c-.32-.15-.634-.306-.942-.471l-.077-.04c-.12-.062-.238-.13-.355-.194a21.417,21.417,0,0,1-5.095-3.967c-.043-.043-.083-.087-.13-.13-.207-.224-.41-.451-.606-.684-.073-.086-.146-.172-.217-.26q-.349-.427-.675-.873c-.033-.043-.064-.087-.095-.13A18.869,18.869,0,0,1,67.9,122.3c-.018-.043-.035-.087-.051-.13q-.26-.669-.475-1.362c-.059-.193-.114-.39-.164-.583-.017-.057-.033-.116-.047-.173a35.486,35.486,0,0,1-.788-8.687v-1.021a99.349,99.349,0,0,1,.791-14.2.784.784,0,0,1,.014-.1,44.763,44.763,0,0,1,.951-4.66,34.557,34.557,0,0,1,1.6-4.723,43.876,43.876,0,0,1,6.527-10.389c6.518-8,15.075-14.73,25.09-17.24a36.933,36.933,0,0,1,31.491,6.817c2.567,2.043,4.881,4.449,7.727,6.071q.144.084.293.164.564.306,1.153.557a11.894,11.894,0,0,0,1.6.553,9.058,9.058,0,0,0,5.26-.07c.141-.048.281-.1.42-.155.3-.117.578-.226.85-.328a12.276,12.276,0,0,1,5.538-.906,53.517,53.517,0,0,1,15.659,3.277c.2.074.406.151.608.228,13.1,5.015,24.368,14.975,30.22,27.773q.234.507.451,1.023C206.107,112.192,207.367,121.751,203.517,129.695Z" transform="translate(-234.878 9865.077)" fill="#6881c4" opacity="0.3"/>
    <path id="Path_32639" data-name="Path 32639" d="M1010.182,500.67c.687.274,1.876.793,1.876-.183,0-.41-.336-.442-.655-.549a5.842,5.842,0,0,1-2.911-2.315,9.76,9.76,0,0,1-1.539-5.9c0-4.89,6.736-5.774,6.736-10.667,0-1.873-1.18-2.421-1.18-2.949,0-.336.106-.336.442-.336,1.218,0,2.911,2.029,3.427,3.02a2.95,2.95,0,0,1,.366,1.69c0,1.068-.106,2.165-.106,3.244,0,4.114,4.86,3.017,4.86,1.035,0-.914-.549-1.769-.549-2.654,0-.106,0-.183.109-.183.516,0,1.43,1.18,1.69,1.539a9.06,9.06,0,0,1,1.295,4.783c0,4.937-4.494,7.467-4.494,8.535,0,.15.442,1.18,1.843.295a15.128,15.128,0,0,0,8.092-13.684,16.7,16.7,0,0,0-4.893-12.587c-.59-.625-2.5-2.575-3.427-2.575-1.25,0,1.1,2.834,1.1,4.754a1.77,1.77,0,0,1-1.876,1.873c-1.769,0-2.209-3.869-2.421-5.072-.885-5.152-1.952-8.868-7.078-11.292-1.584-.761-5.562-1.8-5.562-.333,0,.366.413.622.7.776a7.36,7.36,0,0,1,2.987,5.821c0,7.025-8.794,13.439-8.794,20.753-.03,6.14,4.282,11.062,9.95,13.135Z" transform="translate(-1149.107 9452.346)" fill="#e20614"/>
    <path id="Path_32860" data-name="Path 32860" d="M167.161,488.052l-.215-.048a48.826,48.826,0,0,1,95.218-.13l-.214.049a48.325,48.325,0,0,0-47.38-37.757A48.909,48.909,0,0,0,167.161,488.052Z" transform="translate(-317.564 9517.18)" fill="#3f3d56"/>
    <path id="Path_32861" data-name="Path 32861" d="M214.176,773.059a2.213,2.213,0,0,0,.824,1.115,1.905,1.905,0,0,0-.674-2.493A2.213,2.213,0,0,0,214.176,773.059Z" transform="translate(-359.55 9230.816)" fill="#3f3d56"/>
    <path id="Path_32862" data-name="Path 32862" d="M206.78,778.5a2.213,2.213,0,0,1,.573,1.262,1.905,1.905,0,0,1-1.851-1.8A2.213,2.213,0,0,1,206.78,778.5Z" transform="translate(-351.881 9225.222)" fill="#0e70c7"/>
    <path id="Path_32863" data-name="Path 32863" d="M343.176,773.059a.744.744,0,1,0,.15-1.378A2.213,2.213,0,0,0,343.176,773.059Z" transform="translate(-474.368 9230.816)" fill="#3f3d56"/>
    <path id="Path_32864" data-name="Path 32864" d="M335.78,778.5a.744.744,0,1,1-1.277-.539A2.213,2.213,0,0,1,335.78,778.5Z" transform="translate(-466.699 9225.222)" fill="#0e70c7"/>
    <path id="Path_32865" data-name="Path 32865" d="M319.531,76.552l-2.245-1.8L329.86,63.529h31.884v9.88L341.087,87.33Z" transform="translate(-447.912 9872.487)" fill="#3f3d56"/>
    <path id="Path_32866" data-name="Path 32866" d="M560.414,69.827V63.753h-4.233v1.487l-1.58-1.712L544.272,74.756l-4.042,2.694-6.267,45.785,9.451,9.451h21.964V75.2Z" transform="translate(-640.769 9872.487)" fill="#ccc"/>
    <rect id="Rectangle_4230" data-name="Rectangle 4230" width="34.13" height="57.931" transform="translate(-130.626 9947.243)" fill="#f2f2f2"/>
    <rect id="Rectangle_4231" data-name="Rectangle 4231" width="6.287" height="14.146" transform="translate(-117.378 9991.027)" fill="#ccc"/>
    <path id="Path_32867" data-name="Path 32867" d="M354.7,582.5v-2.245h-2.694V582.5H354.7Z" transform="translate(-478.816 9412.571)" fill="#3f3d56"/>
    <path id="Path_32868" data-name="Path 32868" d="M354.477,617.016h-2.47v2.245H354.7v-2.245Z" transform="translate(-478.816 9379.85)" fill="#3f3d56"/>
    <rect id="Rectangle_4232" data-name="Rectangle 4232" width="2.694" height="2.245" transform="translate(-122.318 9992.824)" fill="#3f3d56"/>
    <rect id="Rectangle_4233" data-name="Rectangle 4233" width="2.694" height="2.245" transform="translate(-122.318 9996.865)" fill="#3f3d56"/>
    <path id="Path_32869" data-name="Path 32869" d="M522.177,582.5v-2.245h-2.694V582.5h2.694Z" transform="translate(-627.88 9412.571)" fill="#3f3d56"/>
    <path id="Path_32870" data-name="Path 32870" d="M521.953,617.016h-2.47v2.245h2.694v-2.245Z" transform="translate(-627.88 9379.85)" fill="#3f3d56"/>
    <rect id="Rectangle_4234" data-name="Rectangle 4234" width="2.694" height="2.245" transform="translate(-103.906 9992.824)" fill="#3f3d56"/>
    <rect id="Rectangle_4235" data-name="Rectangle 4235" width="2.694" height="2.245" transform="translate(-103.906 9996.865)" fill="#3f3d56"/>
    <path id="Path_32871" data-name="Path 32871" d="M693.738,174.021v-2.245h-2.695v2.245h2.695Z" transform="translate(-780.578 9776.141)" fill="#3f3d56"/>
    <path id="Path_32872" data-name="Path 32872" d="M693.513,208.539h-2.47v2.245h2.695v-2.245Z" transform="translate(-780.578 9743.419)" fill="#3f3d56"/>
    <rect id="Rectangle_4236" data-name="Rectangle 4236" width="2.694" height="2.245" transform="translate(-85.045 9947.917)" fill="#3f3d56"/>
    <rect id="Rectangle_4237" data-name="Rectangle 4237" width="2.694" height="2.245" transform="translate(-85.045 9951.958)" fill="#3f3d56"/>
    <path id="Path_32873" data-name="Path 32873" d="M693.738,288.394v-2.245h-2.695v2.245h2.695Z" transform="translate(-780.578 9674.342)" fill="#3f3d56"/>
    <path id="Path_32874" data-name="Path 32874" d="M693.513,322.912h-2.47v2.245h2.695v-2.245Z" transform="translate(-780.578 9641.62)" fill="#3f3d56"/>
    <rect id="Rectangle_4238" data-name="Rectangle 4238" width="2.694" height="2.245" transform="translate(-85.045 9960.49)" fill="#3f3d56"/>
    <rect id="Rectangle_4239" data-name="Rectangle 4239" width="2.694" height="2.245" transform="translate(-85.045 9964.532)" fill="#3f3d56"/>
    <path id="Path_32875" data-name="Path 32875" d="M693.738,402.768v-2.245h-2.695v2.245h2.695Z" transform="translate(-780.578 9572.542)" fill="#3f3d56"/>
    <path id="Path_32876" data-name="Path 32876" d="M693.513,437.286h-2.47v2.245h2.695v-2.245Z" transform="translate(-780.578 9539.82)" fill="#3f3d56"/>
    <rect id="Rectangle_4240" data-name="Rectangle 4240" width="2.694" height="2.245" transform="translate(-85.045 9973.064)" fill="#3f3d56"/>
    <rect id="Rectangle_4241" data-name="Rectangle 4241" width="2.694" height="2.245" transform="translate(-85.045 9977.106)" fill="#3f3d56"/>
    <path id="Path_32877" data-name="Path 32877" d="M693.738,517.142V514.9h-2.695v2.245h2.695Z" transform="translate(-780.578 9470.742)" fill="#3f3d56"/>
    <path id="Path_32878" data-name="Path 32878" d="M693.513,551.66h-2.47v2.245h2.695V551.66Z" transform="translate(-780.578 9438.021)" fill="#3f3d56"/>
    <rect id="Rectangle_4242" data-name="Rectangle 4242" width="2.694" height="2.245" transform="translate(-85.045 9985.639)" fill="#3f3d56"/>
    <rect id="Rectangle_4243" data-name="Rectangle 4243" width="2.694" height="2.245" transform="translate(-85.045 9989.681)" fill="#3f3d56"/>
    <rect id="Rectangle_4244" data-name="Rectangle 4244" width="26.046" height="5.389" transform="translate(-126.809 9950.162)" fill="#3f3d56"/>
    <rect id="Rectangle_4245" data-name="Rectangle 4245" width="26.046" height="5.389" transform="translate(-126.809 9960.939)" fill="#3f3d56"/>
    <rect id="Rectangle_4246" data-name="Rectangle 4246" width="26.046" height="5.389" transform="translate(-126.809 9971.718)" fill="#3f3d56"/>
    <rect id="Rectangle_4247" data-name="Rectangle 4247" width="26.046" height="5.389" transform="translate(-126.809 9982.495)" fill="#3f3d56"/>
    <rect id="Rectangle_4248" data-name="Rectangle 4248" width="125" height="0.22" transform="translate(-165.508 10004.947)" fill="#3f3d56"/>
    <rect id="Rectangle_4249" data-name="Rectangle 4249" width="0.646" height="25.512" transform="translate(-144.575 9979.562)" fill="#3f3d56"/>
    <path id="Path_32879" data-name="Path 32879" d="M179.831,462.1c.041,8.921-6.235,16.182-6.235,16.182s-6.343-7.2-6.384-16.123,6.235-16.182,6.235-16.182S179.79,453.176,179.831,462.1Z" transform="translate(-317.799 9520.716)" fill="#0e70c7"/>
    <rect id="Rectangle_4250" data-name="Rectangle 4250" width="0.646" height="25.512" transform="translate(-152.971 9979.562)" fill="#3f3d56"/>
    <path id="Path_32881" data-name="Path 32881" d="M103.459,462.1c.041,8.921-6.235,16.182-6.235,16.182s-6.343-7.2-6.384-16.123,6.235-16.182,6.235-16.182S103.418,453.176,103.459,462.1Z" transform="translate(-249.824 9520.716)" fill="#6881c4" opacity="0.87"/>
    <path id="Path_32882" data-name="Path 32882" d="M902.339,231.986c-5.088.023-9.229.1-9.229.1s4.922-6.52,9.21-4.1a58.552,58.552,0,0,0,9.214,4.02S907.427,231.963,902.339,231.986Z" transform="translate(-955.975 9715.158)" fill="#f2f2f2"/>
    <path id="Path_32883" data-name="Path 32883" d="M131.339,345.986c-5.088.023-9.229.1-9.229.1s4.922-6.52,9.21-4.1a58.552,58.552,0,0,0,9.214,4.02S136.427,345.963,131.339,345.986Z" transform="translate(-277.657 9613.754)" fill="#f2f2f2"/>
    <path id="Path_32884" data-name="Path 32884" d="M299.339,107.986c-5.088.023-9.229.1-9.229.1s4.922-6.52,9.21-4.1a58.551,58.551,0,0,0,9.214,4.02S304.427,107.963,299.339,107.986Z" transform="translate(-362.187 9856.396)" fill="#f2f2f2"/>
    <rect id="Rectangle_4251" data-name="Rectangle 4251" width="0.646" height="25.512" transform="translate(-64.605 9979.562)" fill="#3f3d56"/>
    <path id="Path_32885" data-name="Path 32885" d="M1024.464,462.1c.041,8.921-6.235,16.182-6.235,16.182s-6.343-7.2-6.384-16.123,6.235-16.182,6.235-16.182S1024.422,453.176,1024.464,462.1Z" transform="translate(-1082.462 9520.716)" fill="#004a92"/>
    <path id="Path_32880" data-name="Path 32880" d="M179.831,462.1c.041,8.921-6.235,16.182-6.235,16.182s-6.343-7.2-6.384-16.123,6.235-16.182,6.235-16.182S179.79,453.176,179.831,462.1Z" transform="translate(-317.908 9520.716)" fill="#004a92" opacity="0.2" style="mix-blend-mode: multiply;isolation: isolate"/>
  </g>
</svg>
