<svg id="Component_105_1" data-name="Component 105 – 1" xmlns="http://www.w3.org/2000/svg" width="32" height="32" viewBox="0 0 32 32">
  <rect id="Rectangle_3657" data-name="Rectangle 3657" width="32" height="32" fill="none"/>
  <g id="Group_3564" data-name="Group 3564" transform="translate(4.026 2.472)">
    <path id="Path_32243" data-name="Path 32243" d="M2750.28,497.03h-12.145a1.912,1.912,0,0,0-1.906,1.906v23.032a1.912,1.912,0,0,0,1.906,1.906h17.28a1.912,1.912,0,0,0,1.906-1.906V504.15Z" transform="translate(-2733.436 -497.03)" fill="#e6e6e6"/>
    <g id="Group_3564-2" data-name="Group 3564" transform="translate(15.994)">
      <path id="Path_32244" data-name="Path 32244" d="M3212.894,497.031l-.845,6.572a1.912,1.912,0,0,0,1.906,1.906l5.988-1.34-7.049-7.139Z" transform="translate(-3212.049 -497.03)" style="mix-blend-mode: soft-light;isolation: isolate"/>
      <path id="Path_32245" data-name="Path 32245" d="M3242.84,497.066l.012,5.2a1.912,1.912,0,0,0,1.907,1.906l5.122.011Z" transform="translate(-3241.986 -497.065)" fill="#f4f4f4"/>
    </g>
    <path id="Path_32246" data-name="Path 32246" d="M2635.72,848.3v9.853h21.7V848.3h-21.7Z" transform="translate(-2635.717 -838.553)" fill="#f44b4c"/>
    <path id="Path_32247" data-name="Path 32247" d="M2635.591,1203.457l2.794,2.277v-2.282Z" transform="translate(-2635.591 -1183.853)" fill="#e71520"/>
    <g id="Group_3565" data-name="Group 3565" transform="translate(3.547 11.752)">
      <path id="Path_32248" data-name="Path 32248" d="M2765.682,920.612a2.493,2.493,0,0,1,.846.136,1.829,1.829,0,0,1,.647.389,1.73,1.73,0,0,1,.414.613,2.155,2.155,0,0,1,.146.818,2.227,2.227,0,0,1-.15.847,1.81,1.81,0,0,1-.419.628,1.731,1.731,0,0,1-.652.389,2.628,2.628,0,0,1-.852.131h-1.246v1.888h-.963v-5.839Zm1.061,1.966a1.065,1.065,0,0,0-.306-.837,1.164,1.164,0,0,0-.8-.273h-1.217v2.248h1.217a1.164,1.164,0,0,0,.8-.273A1.1,1.1,0,0,0,2766.742,922.578Z" transform="translate(-2763.453 -920.612)" fill="#fffdfd"/>
      <path id="Path_32249" data-name="Path 32249" d="M2953.74,923.531a3.5,3.5,0,0,1-.195,1.192,2.681,2.681,0,0,1-.55.925,2.4,2.4,0,0,1-.866.594,2.965,2.965,0,0,1-1.134.209h-1.927v-5.839H2951a2.963,2.963,0,0,1,1.134.209,2.4,2.4,0,0,1,.866.594,2.682,2.682,0,0,1,.55.925A3.5,3.5,0,0,1,2953.74,923.531Zm-3.708-2.063v4.126h.9a1.814,1.814,0,0,0,.72-.141,1.718,1.718,0,0,0,.579-.4,1.866,1.866,0,0,0,.389-.647,2.507,2.507,0,0,0,.142-.871,2.537,2.537,0,0,0-.142-.881,1.866,1.866,0,0,0-.389-.647,1.659,1.659,0,0,0-.579-.4,1.873,1.873,0,0,0-.72-.136Z" transform="translate(-2943.919 -920.612)" fill="#fffdfd"/>
      <path id="Path_32250" data-name="Path 32250" d="M3155.608,923.911H3153.2v2.54h-.964v-5.839h3.834v.857h-2.87v1.625h2.413Z" transform="translate(-3141.444 -920.612)" fill="#fffdfd"/>
    </g>
  </g>
</svg>
